<svg width="101" height="101" viewBox="0 0 101 101" fill="none" xmlns="http://www.w3.org/2000/svg">
<path d="M82 16.07C81.7937 15.8662 81.5328 15.7266 81.2489 15.6681C80.9649 15.6095 80.6701 15.6345 80.4 15.74L7.48999 44.33H7.42999L7.31999 44.39L7.17999 44.48L7.07999 44.56L6.99999 44.69L6.90999 44.79L6.81999 44.91L6.70999 45L6.63999 45.14V45.19C6.63999 45.19 6.63999 45.27 6.63999 45.31V45.38C5.63999 48.57 6.05999 53.83 7.84999 59.22V59.28C10.3343 66.5519 14.4769 73.1458 19.95 78.54C30.05 88.64 41.79 93.77 49 93.77C50.1704 93.7933 51.3364 93.6209 52.45 93.26C52.8173 93.1295 53.1189 92.8603 53.29 92.51C53.5585 92.3392 53.7653 92.0869 53.88 91.79L82.37 17.67C82.4706 17.3962 82.4891 17.099 82.4234 16.8149C82.3577 16.5307 82.2105 16.2718 82 16.07V16.07ZM48.11 31.68C51.4702 34.2424 55.1264 36.3912 59 38.08C62.5075 39.6126 66.1454 40.8275 69.87 41.71L63.64 58C56.389 57.351 49.2941 55.5131 42.64 52.56C36.0745 49.7226 30.1162 45.6486 25.09 40.56L48.09 31.56L48.11 31.68ZM56.11 77.76C49.9 78.76 42.11 79.15 31.57 74.54C21.71 70.26 14.1 64.33 10.62 58.26C8.99999 53.33 8.72999 49.19 9.26999 46.85L22.07 41.85C27.5425 47.6261 34.1374 52.2235 41.45 55.36C48.135 58.3308 55.2448 60.234 62.52 61L56.11 77.76ZM51.17 90.5C46.29 91.89 33.44 87.79 22.07 76.41C19.6256 73.9762 17.4405 71.2952 15.55 68.41C20.0322 72.0537 25.0084 75.0434 30.33 77.29C36.1473 79.942 42.4569 81.3423 48.85 81.4C50.8575 81.3937 52.8621 81.25 54.85 80.97L51.17 90.5ZM71 38.88C67.3108 38.0337 63.7085 36.8452 60.24 35.33C57.1243 33.9689 54.1556 32.2936 51.38 30.33L78.38 19.76L71 38.88Z" fill="black"/>
<path d="M53.5 20C53.8978 20 54.2794 19.842 54.5607 19.5607C54.842 19.2794 55 18.8978 55 18.5V6.5C55 6.10218 54.842 5.72064 54.5607 5.43934C54.2794 5.15804 53.8978 5 53.5 5C53.1022 5 52.7206 5.15804 52.4393 5.43934C52.158 5.72064 52 6.10218 52 6.5V18.5C52 18.8978 52.158 19.2794 52.4393 19.5607C52.7206 19.842 53.1022 20 53.5 20Z" fill="black"/>
<path d="M37.7201 22.94C37.8574 23.0874 38.023 23.2056 38.207 23.2876C38.391 23.3696 38.5896 23.4136 38.791 23.4172C38.9925 23.4207 39.1925 23.3837 39.3793 23.3083C39.5661 23.2328 39.7357 23.1205 39.8782 22.9781C40.0206 22.8356 40.1329 22.666 40.2083 22.4792C40.2838 22.2924 40.3208 22.0924 40.3173 21.891C40.3137 21.6896 40.2696 21.4909 40.1877 21.3069C40.1057 21.1229 39.9875 20.9573 39.8401 20.82L30.7201 11.7C30.4357 11.435 30.0597 11.2908 29.671 11.2977C29.2824 11.3045 28.9117 11.4619 28.6368 11.7368C28.362 12.0116 28.2046 12.3824 28.1977 12.771C28.1909 13.1596 28.3351 13.5357 28.6001 13.82L37.7201 22.94Z" fill="black"/>
<path d="M92.5 44H79.5C79.1022 44 78.7206 44.158 78.4393 44.4393C78.158 44.7206 78 45.1022 78 45.5C78 45.8978 78.158 46.2794 78.4393 46.5607C78.7206 46.842 79.1022 47 79.5 47H92.5C92.8978 47 93.2794 46.842 93.5607 46.5607C93.842 46.2794 94 45.8978 94 45.5C94 45.1022 93.842 44.7206 93.5607 44.4393C93.2794 44.158 92.8978 44 92.5 44Z" fill="black"/>
<path d="M78.2799 59.27C77.9956 59.0051 77.6195 58.8608 77.2309 58.8677C76.8423 58.8745 76.4715 59.0319 76.1967 59.3068C75.9218 59.5816 75.7644 59.9524 75.7576 60.341C75.7507 60.7296 75.8949 61.1057 76.1599 61.39L84.7999 70C84.9372 70.1474 85.1028 70.2656 85.2868 70.3476C85.4708 70.4296 85.6695 70.4736 85.8709 70.4772C86.0723 70.4808 86.2723 70.4437 86.4591 70.3683C86.6459 70.2928 86.8155 70.1805 86.958 70.0381C87.1004 69.8957 87.2127 69.726 87.2882 69.5392C87.3636 69.3524 87.4006 69.1524 87.3971 68.951C87.3935 68.7496 87.3495 68.5509 87.2675 68.3669C87.1855 68.1829 87.0673 68.0173 86.9199 67.88L78.2799 59.27Z" fill="black"/>
</svg>
