<svg width="453" height="445" viewBox="0 0 453 445" fill="none" xmlns="http://www.w3.org/2000/svg">
<path d="M353.457 237.811C353.457 237.811 352.565 240.22 354.528 241.855C356.461 243.46 361.874 240.041 363.659 239.357C365.443 238.674 366.038 239.357 366.038 239.357C366.038 239.357 362.737 230.973 356.61 231.806C352.981 232.311 352.595 234.928 353.457 237.811Z" fill="#65AD1C"/>
<path d="M361.606 238.911C361.012 238.763 359.554 238.347 359.019 237.841C360.952 237.99 362.915 238.287 364.67 238.614C363.748 238.317 362.558 238.019 361.279 237.722C361.428 236.919 363.034 236.741 363.034 236.741C363.153 236.741 363.123 236.563 363.004 236.563C362.945 236.563 361.279 236.741 361.101 237.663C360.506 237.544 359.911 237.425 359.316 237.336C359.614 235.879 361.844 235.314 361.874 235.314C361.904 235.314 361.934 235.255 361.934 235.225C361.934 235.165 361.874 235.165 361.844 235.165C361.755 235.195 359.465 235.79 359.168 237.336C358.543 237.247 357.889 237.157 357.264 237.098C357.413 235.225 360.03 234.065 360.06 234.065C360.149 234.036 360.09 233.857 360 233.917C359.881 233.976 357.264 235.136 357.115 237.098C356.342 237.038 355.599 237.038 354.914 237.068C354.795 235.165 356.848 233.56 356.877 233.53C356.907 233.501 356.907 233.441 356.907 233.411C356.877 233.382 356.818 233.382 356.788 233.382C356.699 233.441 354.617 235.076 354.766 237.068C354.468 237.098 354.201 237.128 353.933 237.187C351.048 237.782 350.542 235.671 350.394 235.463C350.334 235.314 350.185 235.225 350.007 235.255C349.323 235.433 350.245 236.949 350.959 237.514C352.208 238.436 353.249 238.109 354.647 237.901C355.361 240.011 357.205 240.517 357.205 240.517C357.234 240.517 357.294 240.487 357.294 240.457C357.294 240.398 357.264 240.368 357.234 240.368C357.205 240.368 355.48 239.892 354.795 237.901C355.39 237.811 355.777 237.782 356.461 237.752C356.996 239.03 359.287 239.536 359.406 239.565C359.435 239.565 359.495 239.536 359.495 239.506C359.495 239.447 359.465 239.417 359.435 239.417C359.406 239.417 357.205 238.911 356.639 237.752C357.324 237.752 358.067 237.752 358.781 237.811C359.316 238.495 361.458 239.03 361.577 239.06C361.606 239.06 361.666 239.03 361.666 239.001C361.666 238.971 361.636 238.911 361.606 238.911Z" fill="#2A5301"/>
<path d="M190.856 33.5066L184.164 31.9606L182.409 36.7174L175.777 35.4093L173.368 39.7499L168.252 39.4228V41.4742L175.063 41.9202L177.353 37.8174L184.253 39.1553L185.978 34.4877L192.016 35.885L190.856 33.5066Z" fill="#F7CC7F"/>
<path d="M308.189 37.4309L308.427 35.2012L306.702 33.7444C306.494 33.566 306.583 33.2687 306.851 33.2093L309.052 32.7336L309.914 30.6525C310.004 30.4147 310.331 30.3849 310.479 30.6228L311.61 32.585L313.87 32.7633C314.138 32.7931 314.257 33.0904 314.078 33.2687L312.561 34.9336L313.067 37.1336C313.126 37.3715 312.859 37.5796 312.651 37.4904L310.598 36.5688L308.665 37.7282C308.457 37.8769 308.16 37.6985 308.189 37.4309Z" fill="#96D9C9"/>
<path d="M350.899 156.708C350.304 161.286 355.093 164.943 359.346 164.646C364.045 164.319 368.031 160.484 368.715 155.846C369.458 150.851 366.454 146.837 361.815 146.481C357.294 146.124 354.379 150.138 355.688 154.211C356.639 157.124 359.286 158.224 360.625 157.421C361.666 156.797 361.606 155.221 360.327 154.924C359.822 154.805 359.286 155.102 359.019 155.489C357.918 155.043 356.848 153.021 357.561 150.851C358.483 148.086 361.993 147.908 364.164 149.216C366.93 150.851 367.376 154.419 366.365 157.243C365.294 160.216 362.38 162.565 359.197 162.773C355.598 163.04 352.416 160.275 352.148 156.678C352.148 155.875 351.018 155.905 350.899 156.708Z" fill="#50BFA5"/>
<path d="M65.7601 60.7987L65.7304 56.5771L62.2208 54.1987C61.8342 53.9311 61.8936 53.3068 62.3695 53.1581L66.3847 51.8203L67.5447 47.7472C67.6636 47.2716 68.2882 47.1824 68.5857 47.5689L71.1137 50.9581L75.3372 50.8094C75.813 50.7797 76.1105 51.3446 75.8428 51.7311L73.3742 55.1797L74.8018 59.1636C74.9803 59.6095 74.5341 60.0555 74.088 59.9068L70.043 58.6284L66.7119 61.2149C66.3252 61.542 65.7601 61.2744 65.7601 60.7987Z" fill="#F7CC7F"/>
<path d="M353.457 203.473C353.308 201.511 354.795 199.787 356.788 199.668C358.751 199.519 360.476 201.006 360.595 202.997C360.744 204.96 359.257 206.684 357.264 206.803C355.301 206.952 353.576 205.465 353.457 203.473Z" fill="#F7CC7F"/>
<path d="M359.525 213.581C359.316 212.541 359.168 211.441 358.84 210.43C358.543 209.568 357.205 209.835 357.264 210.757C357.353 211.887 357.71 213.046 357.948 214.146C358.037 214.592 358.632 214.8 359.019 214.652C359.465 214.503 359.614 214.027 359.525 213.581Z" fill="#F7CC7F"/>
<path d="M365.651 209.152C364.462 208.468 363.421 207.576 362.35 206.773C361.487 206.119 360.565 207.249 361.279 207.992C362.29 209.092 363.599 209.954 364.878 210.698C365.294 210.935 365.86 210.698 366.038 210.311C366.246 209.865 366.038 209.389 365.651 209.152Z" fill="#F7CC7F"/>
<path d="M363.391 202.76C363.123 202.968 363.064 203.295 363.242 203.592C363.629 204.306 364.67 204.276 365.384 204.246C366.127 204.216 366.901 204.068 367.614 203.83C368.655 203.473 368.09 201.838 367.049 202.195C364.967 202.908 364.164 202.135 363.391 202.76Z" fill="#F7CC7F"/>
<path d="M362.261 195.803C361.22 197.319 360.357 197.824 360.506 198.687C360.595 199.162 360.982 199.4 361.458 199.311C362.023 199.192 362.32 198.597 362.647 198.181C362.975 197.795 363.272 197.379 363.569 196.962C363.837 196.576 363.867 196.07 363.48 195.743C363.153 195.446 362.528 195.416 362.261 195.803Z" fill="#F7CC7F"/>
<path d="M358.216 195.535C357.889 194.614 357.799 194.287 357.383 193.841C356.996 193.454 356.223 193.692 356.164 194.257C356.104 194.911 356.223 195.149 356.58 196.1C356.729 196.546 357.234 196.784 357.68 196.635C358.127 196.487 358.365 195.981 358.216 195.535Z" fill="#F7CC7F"/>
<path d="M353.814 197.765C352.327 196.635 352 196.308 351.405 196.368C351.048 196.397 350.661 196.724 350.751 197.111C350.899 197.824 351.316 198.033 352.684 199.043C353.041 199.311 353.576 199.341 353.873 198.954C354.201 198.627 354.201 198.062 353.814 197.765Z" fill="#F7CC7F"/>
<path d="M347.806 202.997C347.211 203.325 347.449 204.335 348.104 204.425C348.728 204.514 348.966 204.395 351.94 203.86C352.386 203.77 352.773 203.443 352.743 202.938C352.714 202.522 352.297 202.046 351.821 202.135C348.698 202.67 348.401 202.67 347.806 202.997Z" fill="#F7CC7F"/>
<path d="M352.476 207.873C350.84 209.449 350.602 209.181 349.947 210.133C349.65 210.579 350.126 211.292 350.661 211.173C351.316 211.054 351.494 210.935 352.357 210.252C352.862 209.865 353.338 209.419 353.784 209.003C354.111 208.676 354.022 208.052 353.695 207.784C353.308 207.457 352.803 207.546 352.476 207.873Z" fill="#F7CC7F"/>
<path d="M210.099 14.3901L220.539 28.6903L227.439 21.1389L210.099 14.3901Z" fill="#466EB6"/>
<path d="M228.391 17.1848L227.439 21.1389L210.099 14.3901L228.391 17.1848Z" fill="#9BC1F9"/>
<path d="M227.439 22.6551L210.099 14.3901L226.22 28.6903L227.439 22.6551Z" fill="#9BC1F9"/>
<path d="M237.968 39.8093C237.849 39.8093 234.785 39.4823 230.919 37.0742C227.052 34.666 225.595 30.4444 225.595 29.7606C225.595 29.493 225.803 29.2849 226.071 29.2849C226.339 29.2849 226.547 29.493 226.547 29.7308C226.577 30.1768 227.826 34.012 231.425 36.2417C235.083 38.5309 238.027 38.8282 238.057 38.8282C238.325 38.858 238.503 39.0958 238.473 39.3336C238.473 39.6309 238.236 39.839 237.968 39.8093ZM226.547 29.7606C226.547 29.7606 226.547 29.7903 226.547 29.7606C226.547 29.7903 226.547 29.7606 226.547 29.7606Z" fill="#F7CC7F"/>
<path d="M256.914 44.031C251.501 42.9607 246.325 40.9391 241.537 38.1147C237.581 35.766 234.399 32.1984 230.384 30.2065C230.146 30.0876 230.056 29.82 230.175 29.5822C230.294 29.3443 230.562 29.2551 230.8 29.3741C234.964 31.4254 238.117 34.9931 242.013 37.312C246.712 40.1066 251.798 42.0688 257.092 43.1391C259.055 43.5256 261.345 43.6742 263.963 43.5553C264.23 43.5553 264.438 43.7337 264.438 44.0013C264.438 44.2688 264.26 44.4769 263.992 44.4769C261.702 44.5661 259.204 44.5067 256.914 44.031Z" fill="#F7CC7F"/>
<path d="M344.832 51.2554C325.232 44.0904 305.78 48.0148 301.378 60.0555C299.177 66.061 301.14 72.9583 306.137 79.2611L291.682 94.0964L313.483 86.426C317.796 89.7558 323.031 92.6693 328.89 94.8396C348.49 102.005 367.942 98.0802 372.343 86.0395C376.745 73.9989 364.432 58.4203 344.832 51.2554Z" fill="#FAE0B2"/>
<path d="M322.644 70.2826C322.019 77.5367 327.373 83.8989 334.6 84.553C341.857 85.1773 348.222 79.8259 348.877 72.5718C349.501 65.3177 344.148 58.9555 336.92 58.3014C329.663 57.6771 323.269 63.0285 322.644 70.2826Z" fill="#F7CC7F"/>
<path d="M342.571 74.1178C342.244 77.9827 338.824 80.8665 334.957 80.5097C331.091 80.153 328.206 76.7637 328.563 72.8988L342.571 74.1178Z" fill="#EFEFEF"/>
<path d="M43.9294 88.9233L41.1039 89.2206L40.1224 84.7017L35.9287 84.6125L34.6498 81.3422L32.9842 81.9962L34.7093 86.3368L38.6947 86.426L39.706 91.1234L43.9591 90.7071L43.9294 88.9233Z" fill="#50BFA5"/>
<path d="M345.397 120.734L340.817 115.116L337.367 118.505L335.76 116.87L340.995 111.667L345.546 117.256L349.531 113.183L353.784 118.207L358.454 114.58L359.852 116.424L353.457 121.389L349.412 116.632L345.397 120.734Z" fill="#F79C8D"/>
<path d="M226.844 441.968H174.171L169.59 389.821H231.425L226.844 441.968Z" fill="#E78C14"/>
<path d="M200.493 394.548C216.459 394.548 229.402 393.177 229.402 391.486C229.402 389.795 216.459 388.424 200.493 388.424C184.526 388.424 171.583 389.795 171.583 391.486C171.583 393.177 184.526 394.548 200.493 394.548Z" fill="#184655"/>
<path d="M171.583 391.486C176.015 389.702 187.287 388.424 200.493 388.424C213.698 388.424 224.97 389.702 229.402 391.486C230.711 390.951 231.395 390.386 231.395 389.791C231.395 387.175 217.565 385.035 200.493 385.035C183.42 385.035 169.59 387.145 169.59 389.791C169.59 390.416 170.304 390.981 171.583 391.486Z" fill="#B75742"/>
<path d="M202.545 391.843C202.307 391.843 202.069 391.783 201.831 391.635C201.236 391.218 201.058 390.386 201.444 389.762C206.709 381.437 209.148 368.742 202.783 359.11C197.578 351.231 186.246 341.867 189.547 330.272C191.154 324.593 194.514 318.707 199.511 312.731C199.987 312.166 200.79 312.107 201.325 312.582C201.861 313.058 201.92 313.92 201.444 314.485C196.686 320.164 193.533 325.723 192.016 331.015C189.191 340.945 199.809 349.864 204.894 357.564C211.438 367.464 209.891 381.199 203.586 391.218C203.378 391.635 202.961 391.843 202.545 391.843Z" fill="#2D5406"/>
<path d="M208.969 341.272C208.969 341.272 202.307 347.872 203.645 357.386C203.645 357.356 209.742 354.294 208.969 341.272Z" fill="#41740E"/>
<path d="M214.828 339.221C214.828 339.221 204.21 346.118 203.645 357.386C203.645 357.356 215.215 350.875 214.828 339.221Z" fill="#5A9F14"/>
<path d="M194.901 372.013C194.901 372.013 194.812 381.378 202.456 387.205C202.456 387.175 204.597 380.724 194.901 372.013Z" fill="#41740E"/>
<path d="M197.608 368.029C197.608 368.029 194.901 380.397 202.426 388.81C202.456 388.781 206.084 376.056 197.608 368.029Z" fill="#5A9F14"/>
<path d="M288.163 285.614C336.075 237.722 336.075 160.074 288.163 112.181C240.251 64.2894 162.571 64.2894 114.659 112.181C66.7476 160.074 66.7476 237.722 114.659 285.614C162.571 333.506 240.251 333.506 288.163 285.614Z" fill="#7BB93E"/>
<path d="M243.411 83.6314C278.179 105.275 301.319 143.835 301.319 187.805C301.319 255.53 246.385 310.442 178.632 310.442C163.88 310.442 149.723 307.826 136.636 303.069C155.433 314.782 177.621 321.531 201.415 321.531C269.167 321.531 324.101 266.62 324.101 198.895C324.101 145.916 290.493 100.786 243.411 83.6314Z" fill="#5A9F14"/>
<path d="M83.8435 163.784C88.9889 173.803 104.752 183.168 110.671 183.168C117.244 183.168 123.43 193.127 123.43 193.127H126.018C128.606 193.127 125.215 203.087 123.817 210.876C122.419 218.665 131.104 221.341 135.773 226.038C140.473 230.736 136.279 251.071 140.175 254.936C144.072 258.831 154.243 265.995 155.522 264.717C156.831 263.409 151.12 251.547 154.928 245.571C158.705 239.595 161.322 232.995 165.486 225.622C169.68 218.249 179.048 219.23 180.06 209.062C181.071 198.895 167.092 197.111 158.913 197.111C150.734 197.111 149.931 189.946 142.763 187.151C135.595 184.357 127.594 190.927 125.661 190.927C123.728 190.927 119.415 181.354 115.608 179.362C111.831 177.37 105.228 178.559 103.652 173.386C102.046 168.213 113.021 167.619 122.389 167.619C131.758 167.619 132.353 165.419 132.353 159.829C132.353 154.24 142.912 151.267 151.715 142.497C160.489 133.727 150.912 124.362 145.529 125.937C140.146 127.543 126.583 130.337 128.962 124.748C131.342 119.159 149.306 119.753 149.306 119.753C149.306 119.753 149.336 119.724 154.69 116.959C160.073 114.164 140.324 112.024 138.718 112.024C137.112 112.024 141.722 106.583 139.521 104.383C137.32 102.183 134.138 109.378 130.331 109.378C126.553 109.378 120.754 110.775 116.173 111.964C115.816 112.053 115.37 112.024 114.865 111.845C100.618 126.145 89.7622 143.924 83.8435 163.784Z" fill="#41740E"/>
<path d="M130.212 106.018C135.982 103.015 131.223 99.8343 131.223 99.8343C131.223 99.8343 130.42 99.8045 129.171 99.7748C126.018 102.094 122.955 104.532 120.04 107.148C123.52 107.802 127.267 107.534 130.212 106.018Z" fill="#41740E"/>
<path d="M149.96 102.629C149.96 102.629 141.395 108.813 143.566 108.813C145.767 108.813 152.251 110.121 156.325 114.194C160.4 118.267 160.519 117.791 159.329 122.162C158.14 126.562 176.996 120.08 174.29 117.375C171.583 114.67 171.583 114.67 171.583 114.67C171.583 114.67 168.103 112.113 167.092 107.445C166.111 102.837 149.96 102.629 149.96 102.629Z" fill="#41740E"/>
<path d="M181.279 93.0558C181.279 93.0558 164.921 93.8586 164.921 97.6343C164.921 101.41 164.921 101.41 164.921 101.41C164.921 101.41 173.041 101.41 174.557 105.81C176.074 110.21 176.074 110.21 176.074 110.21C176.074 110.21 181.16 115.591 180.119 122.786C179.078 129.951 179.257 133.548 185.265 133.548C191.243 133.548 197.221 118.802 204.805 116.81C212.39 114.818 213.996 111.429 215.185 102.659C216.375 93.8586 181.279 93.0558 181.279 93.0558Z" fill="#41740E"/>
<path d="M274.789 162.862C274.789 162.862 224.019 183.554 218.13 189.441C212.241 195.327 217.118 201.392 217.118 208.795C217.118 216.168 237.076 213.968 240.258 210.787C243.44 207.606 246.028 214.176 249.032 225.146C252.036 236.117 241.864 256.482 248.229 257.671C254.624 258.86 277.941 237.514 283.325 222.173C288.708 206.833 289.719 191.67 279.934 184.089C270.179 176.449 274.789 162.862 274.789 162.862Z" fill="#41740E"/>
<path d="M286.418 110.448C278.298 111.459 270.149 113.094 269.643 115.561C268.662 120.497 268.632 120.556 268.632 120.556C268.632 120.556 256.468 120.556 249.686 120.556C242.905 120.556 237.73 126.74 237.73 130.516C237.73 134.291 248.794 134.41 246.117 137.086C243.411 139.791 232.644 139.375 229.967 142.081L227.261 144.786C227.261 144.786 220.777 155.667 216.583 158.046C212.39 160.424 210.992 159.057 212.39 160.424C213.787 161.821 224.971 163.605 229.551 159.027C229.551 159.027 237.67 153.854 240.02 153.438C242.37 153.051 242.667 154.775 244.154 155.281C245.641 155.786 248.645 156.678 248.645 157.511C248.645 158.343 247.991 159.889 248.437 159.889C248.883 159.889 250.579 157.154 250.579 156.708C250.579 156.262 249.121 155.697 249.121 155.697L251.055 155.905V155.519C251.055 155.519 248.348 155.073 247.723 154.419C247.069 153.765 246.831 152.783 246.236 152.189C245.641 151.594 247.248 149.097 247.872 149.097C248.497 149.097 252.304 153.378 254.058 153.378H255.813C255.813 153.378 258.847 154.062 261.435 155.757C264.022 157.451 264.022 157.451 264.022 157.451C264.022 157.451 269.822 162.089 269.822 163.932C269.822 165.776 272.677 179.065 276.127 178.322C279.548 177.608 287.429 171.216 291.95 168.838C296.471 166.459 297.928 166.043 307.922 167.113C311.283 167.47 315.744 168.362 320.443 169.046C314.792 146.362 302.776 126.175 286.418 110.448Z" fill="#41740E"/>
<path d="M129.141 108.961C129.052 108.961 128.992 108.932 128.933 108.842C128.844 108.724 128.873 108.545 128.992 108.456C129.022 108.426 132.561 105.78 137.439 108.129C137.588 108.188 137.618 108.367 137.558 108.486C137.499 108.634 137.32 108.664 137.201 108.605C132.651 106.405 129.468 108.753 129.319 108.872C129.26 108.932 129.2 108.961 129.141 108.961Z" fill="#B75742"/>
<path d="M131.52 122.043C128.457 122.548 128.635 123.053 128.219 123.083C127.743 123.143 122.181 120.378 122.181 120.378C122.181 120.378 105.763 112.291 104.871 111.815L93.0041 96.9504L83.8732 101.142C83.8732 101.142 97.1977 116.959 98.0602 117.643C98.893 118.326 122.479 126.562 124.501 127.364C124.501 127.364 126.553 129.237 127.892 130.397C129.23 131.526 131.015 131.972 131.431 132.24C131.491 132.27 132.978 133.043 135.06 133.518C136.844 133.905 135.357 132.686 135.357 132.686C135.357 132.686 132.175 131.348 132.323 131.11C132.442 130.932 134.138 131.764 136.101 132.21C136.606 132.329 137.112 132.448 137.588 132.537C138.807 132.805 139.343 132.091 138.123 131.616C137.677 131.437 136.963 131.17 136.428 131.081C135.833 130.962 135.357 130.664 134.881 130.456C133.929 130.099 133.245 129.862 133.275 129.802C133.335 129.772 133.186 129.564 133.721 129.653C134.376 129.772 135.684 130.367 136.666 130.486C137.231 130.545 138.361 130.753 138.361 130.753C138.361 130.753 140.413 130.962 140.413 130.664C140.443 130.04 139.194 129.683 138.42 129.713C137.945 129.475 136.725 129.297 136.725 129.297C136.725 129.297 134.376 128.375 134.495 128.018C134.554 127.87 135.982 128.108 137.498 128.197C139.105 128.316 140.265 128.316 140.354 127.989C140.502 127.483 139.224 127.305 139.224 127.305C139.224 127.305 138.093 127.126 137.736 127.067C137.29 126.978 136.041 126.562 136.041 126.562C136.041 126.562 131.699 124.956 131.847 124.659C131.996 124.332 132.71 123.678 133.037 123.678C133.335 123.678 133.9 123.975 134.197 123.975C134.495 123.975 135.149 123.916 135.208 123.529C135.268 123.143 133.543 122.34 133.543 122.34C133.543 122.34 132.413 121.894 131.52 122.043Z" fill="#F8A492"/>
<path d="M101.302 106.167C101.302 106.167 98.3576 108.842 97.1084 109.734C96.0972 110.478 91.1005 112.856 91.1005 112.856C91.1005 112.856 86.1336 105.275 83.9624 101.499C81.3451 96.891 79.501 90.0531 80.1256 89.845C81.8804 89.3098 84.2598 89.0125 86.4905 90.0233C94.164 93.5315 101.302 106.167 101.302 106.167Z" fill="#3C8F7C"/>
<path d="M128.635 125.997C129.944 126.205 131.312 125.967 131.877 124.748C132.026 126.175 129.855 126.889 128.635 125.997Z" fill="#FE875E"/>
<path d="M52.852 221.609L52.5248 227.406C52.4058 228.149 51.9299 229.963 51.9299 230.617C51.9299 233.144 63.1131 228.476 60.6147 227.376C60.3768 227.287 59.1871 226.514 59.1276 225.652C59.0086 224.344 58.7112 221.668 58.7112 221.668L52.852 221.609Z" fill="#F7A491"/>
<path d="M60.585 227.376C60.585 227.376 57.9677 228.149 56.5995 228.328C55.2611 228.506 53.4766 226.9 52.5248 227.346C51.4838 227.822 51.5136 232.163 51.5136 232.163C51.5136 232.163 65.6114 233.382 69.5672 232.133C71.1435 231.598 65.9683 229.16 60.585 227.376Z" fill="#184655"/>
<path d="M34.8876 221.252L34.5605 227.049C34.4415 227.792 33.9656 229.606 33.9656 230.26C33.9656 232.787 45.1487 228.119 42.6504 227.019C42.4124 226.93 40.8956 225.592 40.8063 224.73C40.6874 223.422 40.7469 221.311 40.7469 221.311L34.8876 221.252Z" fill="#F7A491"/>
<path d="M42.6207 227.019C42.6207 227.019 40.0034 227.792 38.6352 227.971C37.2968 228.149 35.5123 226.544 34.5605 226.99C33.5196 227.465 33.4601 231.806 33.4601 231.806C33.4601 231.806 47.4389 232.371 51.5731 231.776C53.2387 231.509 47.9743 228.803 42.6207 227.019Z" fill="#184655"/>
<path d="M37.4158 129.832C37.4158 129.832 35.5123 139.613 36.2856 147.016C37.0589 154.419 37.1184 180.759 37.1184 180.759L34.1739 222.887L41.1633 223.036C41.1633 223.036 49.4614 180.908 49.3127 182.008C49.164 183.078 52.1085 152.367 52.1085 152.367L42.2043 128.88L37.4158 129.832Z" fill="#184655"/>
<path d="M40.0628 123.529C40.0628 123.529 31.4673 132.537 34.6795 142.408C35.9584 146.362 47.9445 184.149 48.0932 187.241C48.2419 190.332 52.1382 224.463 52.1382 224.463L60.2578 224.225L62.0126 186.259L59.6927 135.124L54.7555 126.502L40.0628 123.529Z" fill="#355389"/>
<path d="M92.201 94.1558C89.3755 91.0342 83.2783 86.5747 83.2783 86.5747C83.2783 86.5747 79.62 83.4828 78.1329 82.9476C75.932 82.2044 72.1845 80.1827 66.7714 88.3882C62.9049 94.245 38.427 124.599 34.382 125.61L60.6147 138.127C61.3285 132.151 74.2962 120.853 76.1699 118.743C80.3933 114.075 94.8778 97.1288 92.201 94.1558Z" fill="#50BFA5"/>
<path d="M90.9816 81.4611L82.8024 86.2179C82.8024 86.2179 82.5645 93.1748 85.2413 94.9883C87.472 96.5045 89.197 92.8775 89.197 92.8775C89.197 92.8775 92.2308 88.6855 94.5507 87.3774C96.8705 86.0395 90.9816 81.4611 90.9816 81.4611Z" fill="#F7A491"/>
<path d="M89.6134 84.5233C89.9108 85.9801 90.6247 88.0612 91.7251 89.7855C92.6174 88.8044 93.6287 87.8531 94.5507 87.3476C95.6214 86.753 94.9373 85.4449 93.8963 84.226C92.439 82.7098 90.9816 81.4611 90.9816 81.4611L89.4052 82.3827C89.316 82.9773 89.5242 84.0476 89.6134 84.5233Z" fill="#E78C14"/>
<path d="M95.2347 69.5096C95.086 69.3312 88.3642 77.6854 89.197 81.58C90.0298 85.5044 94.0747 89.072 96.9002 88.0909C100.023 86.9909 105.823 77.18 103.741 72.4232C101.689 67.6366 95.2347 69.5096 95.2347 69.5096Z" fill="#F7A491"/>
<path d="M102.611 66.8637C99.696 65.2285 94.9075 64.7825 91.3384 66.6258C86.9366 68.915 85.9551 74.6827 87.3232 78.1908C88.6913 81.6989 87.115 83.6909 87.115 83.6909L89.4349 82.3233C89.4349 82.3233 90.8031 80.2124 90.9815 78.5178C91.16 76.8232 93.6286 77.1205 94.8183 76.3773C95.7403 75.7827 96.93 73.8799 98.4171 72.8691C98.4171 72.8691 102.194 72.3934 104.068 73.434C107.251 75.2773 106.804 69.2123 102.611 66.8637Z" fill="#13375B"/>
<path d="M115.578 134.321C112.366 133.935 112.366 134.202 111.95 134.143C111.474 134.083 106.477 129.802 106.477 129.802C106.477 129.802 91.6954 117.286 90.9221 116.572L82.8025 98.645L72.0953 100.221C72.0953 100.221 82.0887 121.299 82.7727 122.221C83.4568 123.143 105.407 135.927 107.31 137.264C107.31 137.264 108.976 139.673 110.076 141.159C111.177 142.646 112.872 143.597 113.259 143.954C113.318 144.013 114.627 145.173 116.619 146.213C118.344 147.105 117.095 145.5 117.095 145.5C117.095 145.5 114.181 143.3 114.389 143.121C114.537 142.973 116.054 144.251 117.958 145.262C118.434 145.529 118.939 145.767 119.385 146.005C120.545 146.6 121.229 146.094 120.129 145.262C119.742 144.964 119.058 144.519 118.523 144.251C117.958 143.954 117.512 143.537 117.095 143.21C116.233 142.586 115.608 142.2 115.668 142.17C115.727 142.14 115.578 141.873 116.114 142.11C116.738 142.408 117.958 143.359 118.91 143.746C119.445 143.954 120.575 144.489 120.575 144.489C120.575 144.489 122.211 144.697 122.27 144.608C122.598 144.102 121.616 143.686 120.843 143.478C120.397 143.091 119.207 142.586 119.207 142.586C119.207 142.586 117.036 141.01 117.244 140.713C117.333 140.594 118.612 141.486 120.189 142.051C122.003 142.735 122.865 142.348 123.014 142.081C123.252 141.635 122.152 141.367 122.152 141.367C122.152 141.367 120.635 141.01 120.278 140.802C119.861 140.594 115.043 136.937 115.281 136.67C115.519 136.402 116.263 136.402 116.56 136.491C116.857 136.581 117.422 136.789 117.72 136.878C118.017 136.967 118.582 136.61 118.701 136.254C118.82 135.897 117.69 135.243 117.69 135.243C117.69 135.243 116.5 134.41 115.578 134.321Z" fill="#F8A492"/>
<path d="M73.7905 108.932C73.7905 108.932 76.8837 107.951 78.8467 107.059C80.1851 106.464 85.9551 103.58 85.9551 103.58C85.9551 103.58 83.4568 93.1153 81.7912 89.3396C75.6048 75.5151 68.5857 85.0584 67.6339 87.2585C65.4925 92.2531 73.7905 108.932 73.7905 108.932Z" fill="#96D9C9"/>
<path d="M148.384 59.4906C146.57 69.0637 140.83 89.2206 131.431 88.8936C130.985 75.7529 130.331 64.4555 129.438 60.8879C129.23 60.1447 128.992 59.4312 128.695 58.7474C134.554 59.2528 138.064 50.3338 139.402 44.0607C138.212 48.0445 135.476 54.4365 131.907 56.5771C129.885 57.796 128.397 57.1717 127.832 57.023C124.442 50.6905 118.017 46.4689 114.924 42.6931C113.705 41.1769 113.467 37.4012 113.645 33.5066H113.318C113.169 35.5579 113.11 37.5498 113.259 39.2742C113.734 44.3878 116.382 44.7148 122.419 51.5527C127.267 56.9636 128.933 59.8771 129.111 80.5989C128.754 80.6881 128.278 80.7476 127.773 80.7773C122.836 80.8665 118.255 76.0502 115.757 71.8583C117.75 75.6935 121.289 80.0043 125.423 81.3125C126.167 81.5503 126.97 81.699 127.773 81.7287C128.219 81.7287 128.695 81.6989 129.111 81.6395C129.23 83.453 129.766 119.07 129.29 142.081C130.747 142.11 130.479 141.427 131.907 141.516C131.848 135.272 132.175 111.964 131.52 91.5099C142.465 91.1234 147.076 70.8772 148.384 59.4906Z" fill="#2D5406"/>
<path d="M136.19 141.635H137.32V97.5153C137.32 97.218 137.082 96.9504 136.755 96.9504C136.457 96.9504 136.19 97.1883 136.19 97.5153V141.635Z" fill="#F7CC7F"/>
<path d="M123.074 143.24C123.074 143.24 128.249 137.027 132.413 138.781C136.577 140.564 137.261 137.354 139.432 138.394C141.603 139.435 144.339 142.11 144.339 142.11L123.074 143.24Z" fill="#2D5406"/>
<path d="M133.067 109.972C131.877 109.972 130.509 109.705 129.022 108.902C128.903 108.842 128.844 108.664 128.903 108.545C128.963 108.426 129.141 108.367 129.26 108.426C133.751 110.805 136.993 108.278 137.112 108.159C137.231 108.069 137.409 108.069 137.499 108.188C137.588 108.307 137.588 108.486 137.469 108.575C137.439 108.634 135.714 109.972 133.067 109.972Z" fill="#FAE0B2"/>
<path d="M129.319 108.991L128.844 108.694C128.487 108.486 125.274 106.553 125.156 105.067C125.126 104.71 125.275 104.413 125.572 104.175C126.107 103.759 126.613 103.64 127.119 103.818C128.665 104.442 129.2 108.04 129.26 108.426L129.319 108.991ZM126.643 104.264C126.405 104.264 126.167 104.383 125.899 104.591C125.75 104.71 125.661 104.859 125.691 105.037C125.75 105.899 127.505 107.207 128.606 107.921C128.368 106.672 127.803 104.68 126.91 104.324C126.821 104.294 126.762 104.264 126.643 104.264Z" fill="#FAE0B2"/>
<path d="M125.899 112.291C125.691 112.291 125.423 112.232 125.245 111.875C125.066 111.607 125.037 111.28 125.156 110.983C125.602 109.794 128.16 108.902 128.457 108.813L129.111 108.575L128.754 109.199C128.487 109.705 127 112.261 125.899 112.291ZM127.892 109.615C127.029 109.972 125.869 110.597 125.661 111.191C125.602 111.34 125.631 111.488 125.691 111.607C125.78 111.756 125.869 111.756 125.899 111.756C126.375 111.726 127.238 110.626 127.892 109.615Z" fill="#FAE0B2"/>
<path d="M129.587 108.575C129.587 108.842 129.379 109.051 129.111 109.051C128.844 109.051 128.635 108.842 128.635 108.575C128.635 108.307 128.844 108.099 129.111 108.099C129.379 108.129 129.587 108.337 129.587 108.575Z" fill="#FAE0B2"/>
<path d="M29.088 441.968H33.4898V208.557C33.4898 207.338 32.5083 206.357 31.2889 206.357C30.0695 206.357 29.088 207.338 29.088 208.557V441.968Z" fill="#E78C14"/>
<path d="M58.8005 441.968H63.2024V204.603C63.2024 203.384 62.2209 202.403 61.0014 202.403C59.782 202.403 58.8005 203.384 58.8005 204.603V441.968Z" fill="#E78C14"/>
<path d="M62.4886 231.657H32.2109V234.303H62.4886V231.657Z" fill="#E78C14"/>
<path d="M62.4886 266.977H32.2109V269.623H62.4886V266.977Z" fill="#E78C14"/>
<path d="M62.4886 302.266H32.2109V304.912H62.4886V302.266Z" fill="#E78C14"/>
<path d="M62.4886 337.556H32.2109V340.202H62.4886V337.556Z" fill="#E78C14"/>
<path d="M61.1502 378.226H30.8725V380.872H61.1502V378.226Z" fill="#E78C14"/>
<path d="M61.1502 410.365H30.8725V413.01H61.1502V410.365Z" fill="#E78C14"/>
<path d="M162.452 18.6415L140.384 23.4281C139.075 23.7254 137.796 22.8929 137.499 21.5848L134.495 7.73061C134.197 6.42249 135.03 5.14409 136.339 4.84679L158.407 0.0602602C159.716 -0.23704 160.995 0.595396 161.292 1.90352L164.296 15.7577C164.594 17.0658 163.761 18.3442 162.452 18.6415Z" fill="#E78C14"/>
<path d="M136.814 14.3901L130.688 24.32L140.086 20.247L136.814 14.3901Z" fill="#E78C14"/>
<path d="M143.744 11.6252L146.124 11.0306C146.124 11.0306 148.652 8.08734 148.563 7.28463C148.473 6.45219 147.611 4.8765 148.027 4.5792C148.444 4.25217 149.395 3.86568 150.258 4.78731C150.883 5.44137 151.15 8.32518 151.477 8.47383C151.686 8.56302 153.054 8.26572 154.065 8.02788C154.719 7.87923 155.433 8.08734 155.85 8.62248C156.147 8.97924 156.177 9.48465 155.879 9.84141L155.433 10.4063L155.968 10.882C156.385 11.2387 156.415 11.8333 156.087 12.2495L155.731 12.6658L156.087 12.9333C156.563 13.2604 156.623 13.9442 156.236 14.3604L155.909 14.7171L155.998 14.8063C156.325 15.1928 156.325 15.7577 155.968 16.1145L155.641 16.4415L149.276 17.9874C148.682 18.1361 148.057 18.1658 147.462 18.0469L145.142 18.2253C144.904 18.255 144.666 18.0766 144.607 17.8388L143.328 12.2495C143.328 11.9522 143.477 11.6847 143.744 11.6252Z" fill="white"/>
<path d="M275.978 48.3418L278.12 48.4013L279.131 46.4391L281.54 46.677L281.927 44.2688L284.693 44.4175L285.318 42.2175L287.994 41.9499L288.113 42.9607L286.121 43.1688L285.436 45.4878L282.789 45.3391L282.373 47.777L279.726 47.5094L278.744 49.4419L276.752 49.3824L276.395 50.7797L275.413 50.5121L275.978 48.3418Z" fill="#50BFA5"/>
<path d="M272.707 66.1502C272.35 69.034 275.324 71.2935 278.001 71.1151C280.945 70.907 283.444 68.4988 283.86 65.615C284.336 62.4934 282.432 59.996 279.547 59.7582C276.722 59.5203 274.908 62.0474 275.711 64.6042C276.306 66.4177 277.971 67.1015 278.804 66.5961C279.458 66.2096 279.429 65.2285 278.625 65.0501C278.298 64.9907 277.971 65.1691 277.822 65.4069C277.138 65.1393 276.484 63.8609 276.93 62.5231C277.495 60.7987 279.696 60.6798 281.064 61.4825C282.789 62.5231 283.087 64.7231 282.432 66.5069C281.748 68.3799 279.934 69.8367 277.941 69.9853C275.681 70.134 273.718 68.4096 273.54 66.1799C273.48 65.615 272.766 65.6447 272.707 66.1502Z" fill="#86B1F2"/>
<path d="M145.707 247.147C145.321 247.266 139.253 248.574 139.253 250.238C139.253 251.903 142.495 256.422 142.495 258.236C142.495 260.049 141.9 263.26 142.971 264.301C144.012 265.341 153.321 261.328 154.006 259.99C154.719 258.682 149.633 256.898 149.961 252.974C150.288 249.079 151.834 245.363 145.707 247.147Z" fill="#FAE0B2"/>
<path d="M98.5659 308.361C98.5659 308.361 98.1793 307.409 98.0603 307.082C97.9413 306.696 97.6737 305.536 97.6737 305.536C97.6737 305.536 96.9004 301.434 97.2275 301.404C97.5547 301.374 98.0901 301.999 98.209 302.236C98.3577 302.474 98.5362 302.742 98.6849 302.98C98.8336 303.217 99.131 303.307 99.4285 303.158C99.7556 303.009 99.3987 301.939 99.2203 301.612C98.6254 300.542 96.3948 297.985 96.1866 297.688C95.9189 297.361 95.9486 289.988 95.7702 287.461C95.562 283.328 95.5917 279.047 95.562 278.601L100.053 261.387L94.1641 257.344C94.1641 257.344 88.8997 276.371 88.751 277.352C88.6915 277.828 89.911 287.371 89.911 287.371C90.833 292.039 91.636 296.171 91.755 296.944C91.755 296.944 91.4873 299.412 91.2196 300.988C90.9519 302.563 91.3683 304.109 91.3683 304.555C91.3683 304.615 91.2791 306.19 91.874 308.004C92.4093 309.58 92.6472 307.855 92.6472 307.855C92.6472 307.855 92.2309 304.763 92.4688 304.763C92.677 304.763 92.796 306.458 93.3611 308.212C93.5098 308.658 93.6585 309.104 93.7774 309.52C94.1343 310.59 94.9076 310.68 94.7292 309.49C94.6697 309.074 94.521 308.39 94.3723 307.915C94.1938 307.409 94.1938 306.874 94.1343 306.428C93.9856 305.536 93.8369 304.882 93.8964 304.882C93.9559 304.912 94.0451 304.704 94.2236 305.18C94.4318 305.744 94.5805 307.053 94.9374 307.855C95.1456 308.301 95.5025 309.312 95.5025 309.312C95.5025 309.312 96.2758 310.858 96.3947 310.828C96.9301 310.709 96.7219 309.461 96.3353 308.866C96.3055 308.361 95.8891 307.35 95.8891 307.35C95.8891 307.35 95.5322 305.09 95.8594 305.031C96.1271 304.972 98.0901 310.234 98.6254 310.085C99.1013 309.966 98.5659 308.361 98.5659 308.361Z" fill="#F7A491"/>
<path d="M98.7444 271.168C98.7444 271.168 95.562 271.198 93.8072 270.871C91.4873 270.455 89.9109 270.039 89.9109 270.039C89.9109 270.039 90.476 259.693 92.3201 253.122C93.0934 250.417 94.1343 248.99 95.7999 248.395C95.7999 248.395 99.9044 250.09 100.797 255.739C101.035 257.076 98.7444 271.168 98.7444 271.168Z" fill="#B75742"/>
<path d="M120.129 380.634C119.861 378.613 119.772 375.521 119.802 371.953H112.723C113.467 377.007 114.032 380.962 114.032 380.962L113.853 382.567V387.294H129.379C129.379 387.294 126.077 385.837 121.467 382.924C121.111 382.686 120.337 382.002 120.129 380.634Z" fill="#F7A491"/>
<path d="M89.9109 379.445L91.9631 373.559H86.55C86.2824 377.334 86.1634 379.891 86.1634 379.891L84.7952 383.756L83.3974 388.364C83.3974 388.364 87.9777 389.553 90.3868 388.216L90.1191 383.637L89.9109 379.445Z" fill="#F7A491"/>
<path d="M117.898 251.457C116.025 248.901 108.292 241.528 107.459 241.528C104.961 241.557 96.7517 241.587 95.1456 242.39L95.2348 256.452C95.5025 257.641 101.154 276.014 100.826 280.058L100.856 280.087C105.615 284.666 113.11 284.309 117.452 279.285C117.452 279.285 117.423 273.696 118.107 268.612C119.118 260.674 122.538 257.79 117.898 251.457Z" fill="#E78C14"/>
<path d="M104.931 233.619C104.931 233.619 105.139 238.822 104.693 240.784C104.217 242.747 103.592 242.895 107.608 243.49C109.184 243.728 110.701 244.084 110.701 244.084C110.701 244.084 110.284 241.201 110.225 239.982C110.136 237.96 110.701 231.776 110.701 231.776L104.931 233.619Z" fill="#F7A491"/>
<path d="M107.994 236.206C108.827 236.652 109.6 236.919 110.314 237.009C110.463 234.571 110.701 231.746 110.701 231.746L105.198 233.53C105.823 234.601 106.745 235.522 107.994 236.206Z" fill="#E78C14"/>
<path d="M90.1488 383.607C88.0371 384.559 85.747 383.994 84.825 383.667L84.5276 384.499L83.3676 388.394C83.3676 388.394 88.0074 389.554 90.4165 388.216L90.1488 383.607Z" fill="#13375B"/>
<path d="M113.675 388.424H129.795C130.39 388.364 130.539 387.889 130.331 387.591C129.914 386.967 128.011 386.521 125.899 385.54C122.181 385.926 114.419 383.37 113.824 382.507C113.497 384.232 113.348 388.364 113.675 388.424Z" fill="#13375B"/>
<path d="M118.047 258.414L123.341 270.217C126.702 266.977 134.822 260.971 137.023 259.276C139.967 256.125 142.257 255.322 143.417 255.055C144.012 254.906 146.6 254.43 146.6 254.43C146.6 254.43 149.604 255.233 149.544 255.441C149.366 256.155 146.57 255.322 146.57 255.322C146.57 255.322 144.904 255.768 144.696 255.857C144.131 256.095 144.458 256.155 144.458 256.155C144.904 256.036 146.957 256.006 147.492 255.976C147.492 255.976 151.002 255.56 151.002 256.274C151.002 256.809 150.288 256.601 149.068 256.72C148.325 256.779 147.224 257.047 146.54 257.166C145.38 257.344 144.25 258.028 144.666 258.028C144.964 258.028 145.916 257.82 146.6 257.701C148.295 257.433 150.258 256.928 150.496 257.166C150.972 257.701 145.44 259.009 144.756 259.693C144.577 259.871 148.354 258.444 148.354 258.533C148.384 259.068 143.179 261.536 143.179 261.536L140.74 261.922L140.621 261.982C140.621 261.982 127.297 279.433 120.783 278.571C115.251 277.828 109.422 259.782 109.541 259.841L118.047 258.414Z" fill="#F8A492"/>
<path d="M104.039 248.425C102.879 253.182 109.065 263.825 109.065 263.825C109.065 263.825 117.898 259.663 119.445 257.879C119.445 257.879 113.437 247.563 113.05 246.938C111.266 244.114 108.857 244.084 107.28 244.293C106.031 244.411 104.039 248.425 104.039 248.425Z" fill="#B75742"/>
<path d="M103.89 249.882C107.964 246.344 109.511 238.495 106.864 233.828C108.708 231.419 109.898 231.865 109.481 228.863C108.678 222.976 116.887 219.438 110.76 217.863C104.544 216.614 99.3987 220.419 96.5434 224.195C95.2645 225.89 93.6584 227.376 91.7847 228.387C88.0371 230.438 86.0444 235.344 88.0372 240.487C85.0332 242.152 82.4159 247.028 84.4086 251.041C84.8845 252.022 85.8362 253.152 85.866 253.42C85.8065 253.093 83.0702 262.071 93.3015 265.133C103.741 268.285 105.912 258.295 103.89 249.882Z" fill="#184655"/>
<path d="M109.927 228.655C109.927 229.963 109.452 231.003 108.857 231.003C108.262 231.003 107.786 229.963 107.786 228.655C107.786 227.346 108.262 226.306 108.857 226.306C109.452 226.306 109.927 227.346 109.927 228.655Z" fill="#F7A491"/>
<path d="M100.916 224.046C99.6961 229.011 106.239 232.609 111.444 232.757C114.805 232.846 116.352 232.49 116.917 228.952C117.809 223.214 115.43 219.706 112.099 218.279C107.786 216.406 101.897 219.944 100.916 224.046Z" fill="#184655"/>
<path d="M108.53 220.717C108.53 220.717 106.239 221.49 105.05 223.779C103.83 226.068 104.425 233.411 109.481 235.819C114.538 238.228 116.857 232.757 116.501 228.684C116.114 224.641 114.657 219.319 108.53 220.717Z" fill="#F7A491"/>
<path d="M103.235 229.309C102.492 225.503 102.789 222.649 105.496 221.252C108.202 219.854 110.522 218.487 112.931 220.984L113.467 221.281C113.467 221.281 108.886 222.53 108.649 224.968C108.381 227.376 105.972 230.26 106.329 231.449C106.715 232.638 107.132 235.017 107.132 235.017L106.12 234.184C106.15 234.184 103.979 233.114 103.235 229.309Z" fill="#184655"/>
<path d="M107.935 227.852C108.321 228.892 108.024 229.963 107.31 230.201C106.567 230.438 105.674 229.814 105.317 228.744C104.931 227.703 105.228 226.633 105.942 226.395C106.656 226.157 107.548 226.811 107.935 227.852Z" fill="#F7A491"/>
<path d="M112.456 280.325L102.998 347.337L94.402 378.226H85.0332C85.0332 378.226 87.2044 353.342 91.8739 344.512C91.8739 344.512 93.8964 320.877 95.9486 306.428C96.246 304.258 94.7589 298.669 95.1455 297.212C98.1495 286.063 100.826 280.058 100.826 280.058L112.456 280.325Z" fill="#355389"/>
<path d="M106.626 309.312L108.827 335.058C108.827 335.058 106.596 349.775 108.113 359.526C109.66 369.278 111.682 378.256 111.682 378.256H120.278L122.003 329.647C122.003 329.647 125.304 303.247 124.174 296.082C123.014 288.917 117.452 279.344 117.452 279.344L103.92 279.969C103.92 279.969 100.261 293.08 100.856 297.48C101.302 300.69 106.626 309.312 106.626 309.312Z" fill="#466EB6"/>
<path d="M147.908 248.217C147.908 248.455 147.73 248.633 147.492 248.633C147.254 248.633 147.076 248.455 147.076 248.217C147.076 247.979 147.254 247.801 147.492 247.801C147.73 247.801 147.908 247.979 147.908 248.217Z" fill="#F7CC7F"/>
<path d="M149.187 251.903C149.187 252.201 149.039 252.439 148.83 252.439C148.622 252.439 148.473 252.201 148.473 251.903C148.473 251.606 148.622 251.368 148.83 251.368C149.039 251.368 149.187 251.606 149.187 251.903Z" fill="#F7CC7F"/>
<path d="M142.257 250.149C142.257 250.357 142.079 250.536 141.871 250.536C141.663 250.536 141.484 250.357 141.484 250.149C141.484 249.941 141.663 249.763 141.871 249.763C142.079 249.763 142.257 249.941 142.257 250.149Z" fill="#F7CC7F"/>
<path d="M144.904 249.198C144.904 249.495 144.726 249.763 144.488 249.763C144.25 249.763 144.072 249.525 144.072 249.198C144.072 248.901 144.25 248.633 144.488 248.633C144.726 248.633 144.904 248.871 144.904 249.198Z" fill="#F7CC7F"/>
<path d="M147.254 388.424H73.9095V392.199H147.254V388.424Z" fill="#F7CC7F"/>
<path d="M123.192 410.394H75.2479V413.694H123.192V410.394Z" fill="#F7CC7F"/>
<path d="M140.056 390.327H136.963V441.968H140.056V390.327Z" fill="#F7CC7F"/>
<path d="M96.3055 390.327H93.2123V441.968H96.3055V390.327Z" fill="#F7CC7F"/>
<path d="M114.954 441.968L131.61 390.772L128.903 389.881L111.95 441.968H114.954Z" fill="#F7CC7F"/>
<path d="M68.0801 441.968L82.3266 390.654L79.5606 389.881L65.1059 441.968H68.0801Z" fill="#F7CC7F"/>
<path d="M451.339 445H1.42763C0.654326 445 0 444.376 0 443.573V443.395C0 442.622 0.624584 441.968 1.42763 441.968H451.339C452.112 441.968 452.767 442.592 452.767 443.395V443.573C452.767 444.376 452.112 445 451.339 445Z" fill="#13375B"/>
<path d="M300.397 297.955C300.218 293.971 300.813 290.017 302.598 286.301C304.115 283.09 307.922 281.277 311.372 281.277C322.347 281.277 323.744 295.815 330.704 301.404C332.846 303.128 335.225 304.526 337.247 306.369C344.713 313.207 341.352 325.842 334.511 331.818C329.752 335.98 322.287 338.329 316.458 335.088C313.394 333.393 311.074 330.569 309.438 327.477C307.089 323.107 305.572 318.053 303.906 313.385C302.092 308.42 300.605 303.277 300.397 297.955Z" fill="#184655"/>
<path d="M323.893 299.59C323.893 299.59 331.953 285.171 333.916 282.109C335.879 279.047 340.965 266.858 341.173 266.382C341.352 265.906 337.664 260.139 338.497 259.931C339.329 259.722 340.222 262.963 341.114 262.576C342.006 262.19 344.564 254.401 345.07 254.787C346.021 255.501 343.672 259.633 344.177 259.871C344.683 260.139 346.2 255.352 347.181 255.501C348.163 255.649 345.308 259.871 345.575 260.258C345.843 260.644 348.817 256.63 349.352 257.493C349.65 257.968 346.616 260.971 347.211 261.268C347.776 261.566 350.483 259.603 350.75 260.168C351.048 260.733 348.282 261.506 347.449 263.022C346.616 264.539 345.218 265.193 344.623 268.017C344.029 270.841 343.166 281.009 340.162 286.093C337.158 291.177 330.585 302.415 330.585 302.415L323.893 299.59Z" fill="#F79C8D"/>
<path d="M281.302 352.688L293.824 343.145C293.824 343.145 295.073 334.226 296.768 326.347C298.88 326.942 300.783 328.607 302.895 329.172L299.713 346.861L283.295 355.334L278.655 361.28L277.614 355.156L281.302 352.688Z" fill="#F48C7F"/>
<path d="M298.612 317.28C302.033 306.904 305.869 307.35 305.869 307.35L302.895 329.172C300.783 328.607 298.017 327.299 295.906 326.704C296.62 323.434 297.75 319.837 298.612 317.28Z" fill="#355389"/>
<path d="M334.66 426.448C334.66 426.448 335.433 431.83 336.772 433.554C337.218 434.149 338.021 434.862 338.556 435.932C339.389 437.568 338.943 440.005 338.318 441.343C337.991 442.027 338.348 442.027 337.634 442.265C335.522 442.919 333.232 441.819 332.34 439.768C331.834 438.638 331.388 437.122 331.299 435.189C331.061 430.313 329.574 427.846 329.574 427.846L334.66 426.448Z" fill="#F7A491"/>
<path d="M311.431 428.886C311.431 428.886 310.955 434.951 311.342 436.913C311.55 437.954 312.71 440.124 312.175 441.135C311.639 442.116 311.045 442.384 311.045 442.384L297.333 442.592C296.59 442.592 297.066 442.116 297.69 441.67C298.672 440.957 299.475 440.451 302.627 438.935C302.836 438.846 303.579 438.37 303.847 438.192C304.531 437.776 305.215 437.122 305.81 436.467C306.791 435.367 306.881 430.046 306.881 430.046L311.431 428.886Z" fill="#F7A491"/>
<path d="M300.694 348.437C300.694 348.437 298.969 358.277 300.099 364.699C301.23 371.151 306.672 430.878 306.672 430.878L312.71 431.235C312.71 431.235 313.989 406.292 313.751 402.813C313.513 399.335 311.729 393.537 311.729 393.537L312.323 373.41L304.68 346.95L300.694 348.437Z" fill="#3C8F7C"/>
<path d="M318.48 346.356C318.48 346.356 323.239 353.55 324.369 359.496C325.499 365.442 323.536 383.726 325.707 391.516C326.897 395.737 331.358 402.248 332.043 407.689C332.727 413.129 335.403 427.43 335.403 427.43L329.366 428.619L315.298 392.943L304.263 360.715L301.438 344.126L318.48 346.356Z" fill="#50BFA5"/>
<path d="M314.614 305.477C314.614 305.477 320.919 305.061 323.417 307.796C325.916 310.531 317.885 332.085 317.439 335.564C316.993 339.042 319.759 348.258 319.759 348.258C319.759 348.258 304.947 351.261 300.694 348.437C300.694 348.437 300.248 323.493 300.694 321.026C301.14 318.558 304.918 308.48 305.84 307.469C306.732 306.458 314.614 305.477 314.614 305.477Z" fill="#466EB6"/>
<path d="M312.532 297.034C312.532 297.034 312.561 297.212 312.621 297.539C312.889 299.055 313.989 304.109 314.703 305.477C315.595 307.142 311.669 312.493 307.922 311.839C306.791 311.631 308.873 306.934 308.784 306.428C308.606 305.477 308.338 304.169 308.07 302.831C307.922 302.088 307.773 301.315 307.624 300.601C307.208 298.55 306.881 296.885 306.881 296.885L312.532 297.034Z" fill="#F7A491"/>
<path d="M312.621 297.539C312.561 297.212 312.532 297.034 312.532 297.034L306.881 296.885C306.881 296.885 307.208 298.55 307.624 300.601C307.773 301.315 307.922 302.088 308.07 302.831C308.933 302.712 309.855 302.266 310.777 301.463C311.758 300.601 312.413 299.531 312.829 298.431C312.71 298.074 312.651 297.777 312.621 297.539Z" fill="#E78C14"/>
<path d="M308.725 284.19C308.725 284.19 311.372 283.893 313.037 286.033C314.703 288.204 316.487 294.863 312.353 298.52C308.219 302.177 304.115 298.044 303.52 293.674C302.925 289.304 302.687 284.012 308.725 284.19Z" fill="#F7A491"/>
<path d="M302.3 293.615C302.806 294.566 303.639 295.101 304.144 294.804C304.68 294.507 304.709 293.466 304.204 292.515C303.698 291.563 302.865 291.028 302.36 291.325C301.854 291.623 301.824 292.634 302.3 293.615Z" fill="#F7A491"/>
<path d="M308.427 283.477C308.427 283.477 311.967 289.839 314.524 290.136C317.052 290.434 317.409 293.793 317.409 293.793C317.409 293.793 316.487 286.004 313.989 284.517C311.461 283.001 308.427 283.477 308.427 283.477Z" fill="#184655"/>
<path d="M331.924 438.668C335.225 439.262 337.426 437.33 338.556 435.903C339.389 437.538 339.805 439.976 339.181 441.343C338.645 442.532 337.039 442.503 335.79 442.532C334.481 442.592 333.44 441.849 332.786 440.689C332.489 440.124 332.191 439.47 331.924 438.668Z" fill="#B75742"/>
<path d="M303.817 438.192C307.446 439.113 310.122 438.489 311.639 437.895C312.026 438.995 312.532 440.362 312.264 441.165C311.937 442.146 311.461 442.354 311.044 442.384C307.743 442.473 298.91 442.592 296.381 442.622C296.025 442.622 295.846 442.205 296.054 441.938C296.649 441.165 303.549 438.37 303.817 438.192Z" fill="#B75742"/>
<path d="M313.84 291.712C313.632 292.842 314.048 293.882 314.762 294.031C315.476 294.179 316.22 293.377 316.428 292.247C316.636 291.117 316.22 290.077 315.506 289.928C314.822 289.779 314.048 290.582 313.84 291.712Z" fill="#F7A491"/>
<path d="M326.124 294.923C326.124 294.923 317.231 304.526 315.892 308.39C314.554 312.255 317.171 317.785 320.8 318.023C324.399 318.261 332.459 300.988 332.459 300.988L326.124 294.923Z" fill="#466EB6"/>
<path d="M263.814 383.459L272.945 379.772C274.194 379.267 274.789 377.87 274.283 376.621L266.104 356.167C265.598 354.918 264.2 354.323 262.951 354.799L253.82 358.486C252.571 358.991 251.976 360.388 252.482 361.637L260.661 382.091C261.167 383.37 262.594 383.964 263.814 383.459Z" fill="#F7CC7F"/>
<path d="M236.124 356.196L254.475 361.072L258.282 373.38L235.975 357.029L230.562 358.902L233.477 351.261L236.124 356.196Z" fill="#F7CC7F"/>
<path d="M272.052 379.683C275.086 375.283 281.748 364.164 277.912 355.78C276.662 353.075 274.105 351.648 272.201 351.648C268.87 351.648 266.461 352.926 264.141 354.175C263.784 354.353 263.427 354.561 263.07 354.74C261.405 355.602 259.739 356.583 258.103 357.534C256.676 358.367 255.189 359.229 253.672 360.032L254.445 361.696C255.962 360.894 257.449 360.032 258.906 359.169C260.512 358.248 262.148 357.267 263.814 356.404C264.171 356.226 264.528 356.018 264.884 355.84C267.115 354.65 269.405 353.402 272.498 353.402C273.896 353.402 275.859 354.442 276.752 356.345C278.209 359.496 277.941 363.688 276.008 368.772C274.432 372.905 272.142 376.502 270.892 378.286L272.052 379.683Z" fill="#F7CC7F"/>
<path d="M275.562 355.81C276.157 355.423 276.96 355.572 277.406 356.107C277.763 356.523 278.15 357.088 278.328 357.653C278.715 358.872 278.387 360.686 277.852 361.042C277.317 361.399 275.8 357.683 275.324 356.672C275.146 356.286 275.294 356.018 275.562 355.81Z" fill="#F48C7F"/>
<path d="M230.562 353.58C229.818 353.223 229.045 352.986 228.272 352.807C227.499 352.629 226.696 352.51 225.922 352.48C225.149 352.45 224.376 352.48 223.632 352.569C222.889 352.659 222.145 352.867 221.461 353.075H221.431C220.658 353.313 219.855 352.867 219.617 352.094C219.379 351.321 219.825 350.518 220.598 350.28C220.747 350.25 220.866 350.221 221.015 350.221C221.937 350.221 222.829 350.25 223.692 350.399C224.554 350.518 225.417 350.756 226.22 351.053C227.023 351.35 227.796 351.707 228.54 352.123C229.253 352.569 229.937 353.045 230.562 353.58Z" fill="#9BC1F9"/>
<path d="M224.435 357.237C223.245 357.029 222.056 356.999 220.896 357.118C219.736 357.237 218.606 357.504 217.624 357.98C217.118 358.218 216.672 358.515 216.256 358.842C215.869 359.169 215.483 359.556 215.185 359.972C214.59 360.805 214.204 361.756 213.996 362.767C213.817 363.54 213.044 364.045 212.27 363.867C211.497 363.688 210.992 362.915 211.17 362.142C211.2 362.053 211.23 361.964 211.259 361.875V361.845C211.824 360.596 212.568 359.437 213.609 358.486C214.115 358.01 214.68 357.623 215.274 357.326C215.869 356.999 216.494 356.791 217.118 356.613C218.368 356.286 219.647 356.256 220.866 356.375C222.115 356.553 223.305 356.821 224.435 357.237Z" fill="#9BC1F9"/>
<path d="M221.788 367.524C221.253 367.91 220.747 368.356 220.331 368.832C219.914 369.307 219.587 369.842 219.379 370.378C219.171 370.913 219.111 371.448 219.171 371.924C219.171 372.043 219.23 372.161 219.23 372.28C219.26 372.399 219.29 372.518 219.349 372.607C219.438 372.815 219.557 373.024 219.706 373.232C220.152 373.916 219.944 374.837 219.26 375.253C218.576 375.699 217.654 375.491 217.238 374.807C217.148 374.659 217.089 374.48 217.029 374.332L217 374.243C216.821 373.41 216.791 372.518 217 371.686C217.208 370.853 217.624 370.14 218.16 369.575C218.665 369.01 219.26 368.594 219.885 368.267C220.479 367.969 221.134 367.702 221.788 367.524Z" fill="#9BC1F9"/>
<path d="M94.7588 195.892C94.7588 195.892 95.4131 194.078 97.5546 193.424C99.4878 192.86 101.272 193.989 101.808 195.743C102.432 197.795 101.362 200.768 97.3166 204.306C91.9928 203.592 89.4647 201.719 88.8401 199.638C88.3047 197.854 89.1673 195.922 91.1005 195.357C93.2122 194.733 94.7588 195.892 94.7588 195.892Z" fill="#F48C7F"/>
<path d="M79.1144 201.481C81.0774 201.214 82.624 200.916 84.1408 200.53C84.6465 200.411 85.5387 200.352 85.7767 199.816C85.8956 199.549 85.8659 199.281 85.5982 199.103C85.1223 198.776 84.4085 199.133 83.9029 199.252C82.3563 199.638 80.6015 199.995 78.817 200.233C78.4898 200.292 78.2816 200.679 78.3411 200.976C78.4303 201.362 78.7872 201.541 79.1144 201.481Z" fill="#F48C7F"/>
<path d="M105.793 199.133C106.537 198.954 107.28 198.776 107.994 198.597C108.708 198.419 109.571 198.36 110.165 197.943C110.611 197.646 110.492 196.992 109.927 196.933C109.184 196.843 108.411 197.17 107.697 197.349C106.953 197.527 106.21 197.706 105.496 197.914C104.723 198.122 104.99 199.311 105.793 199.133Z" fill="#F48C7F"/>
<path d="M88.275 209.479C88.8104 207.695 89.8216 206.952 90.5354 206.149C90.9221 205.733 90.5057 205.108 89.9703 205.316C88.4832 205.941 87.5017 207.635 87.0853 209.122C86.8176 209.895 88.0371 210.252 88.275 209.479Z" fill="#F48C7F"/>
<path d="M97.7033 211.322C97.4951 210.579 97.4356 209.806 97.5248 209.003C97.5843 208.527 98.1791 207.1 97.2571 207.071C96.3946 207.041 96.2756 208.498 96.2161 209.122C96.1269 209.954 96.2161 210.787 96.4541 211.589C96.692 212.362 97.9412 212.095 97.7033 211.322Z" fill="#F48C7F"/>
<path d="M102.849 205.168C103.325 205.376 103.8 205.554 104.306 205.762C104.782 205.97 105.288 206.298 105.793 206.06C106.091 205.911 106.12 205.584 106.031 205.316C105.853 204.841 105.109 204.692 104.693 204.514C104.217 204.306 103.741 204.127 103.235 203.919C102.908 203.8 102.522 204.038 102.432 204.335C102.313 204.722 102.522 205.019 102.849 205.168Z" fill="#F48C7F"/>
<path d="M88.6022 192.622C86.1336 189.232 86.1633 189.203 85.747 188.965C85.3603 188.727 84.7952 189.084 84.9142 189.56C85.0331 190.035 85.0034 189.946 87.6207 193.514C87.8289 193.811 88.3048 193.781 88.5427 193.543C88.8402 193.276 88.8104 192.889 88.6022 192.622Z" fill="#F48C7F"/>
<path d="M95.3239 190.927C95.4131 190.243 95.4429 189.56 95.3834 188.876C95.3239 188.222 95.3536 187.241 94.6695 186.943C94.5208 186.884 94.2829 186.943 94.1936 187.062C93.7475 187.538 94.0747 188.37 94.1044 188.935C94.1639 189.589 94.1342 190.243 94.0747 190.868C94.0449 191.195 94.3424 191.492 94.6695 191.522C95.0264 191.551 95.2644 191.284 95.3239 190.927Z" fill="#F48C7F"/>
<path d="M104.96 189.262C104.99 188.935 104.693 188.727 104.425 188.697C103.86 188.608 103.325 189.262 102.968 189.619C102.551 190.035 102.165 190.481 101.808 190.957C101.599 191.224 101.748 191.67 102.016 191.819C102.343 192.027 102.67 191.878 102.878 191.611C104.276 189.887 104.871 190.035 104.96 189.262Z" fill="#F48C7F"/>
<path d="M118.404 40.285C118.404 40.285 122.33 38.8282 122.032 34.5174C121.705 30.2065 111.296 26.7876 108.44 25.1821C105.555 23.547 105.674 22.0308 105.674 22.0308C105.674 22.0308 99.4581 35.4687 107.548 42.6634C112.337 46.9148 115.935 44.5364 118.404 40.285Z" fill="#69C80A"/>
<path d="M110.284 28.3633C110.79 29.3146 111.98 31.693 112.009 32.912C109.957 30.2363 108.024 27.293 106.388 24.6173C107.102 26.1335 108.113 28.066 109.273 30.0579C108.113 30.7119 106.091 28.8092 106.061 28.8092C105.912 28.6903 105.734 28.8687 105.882 29.0173C105.972 29.1065 108.083 31.0687 109.422 30.3254C109.957 31.2174 110.522 32.139 111.087 33.0309C109.005 34.1904 105.734 31.8714 105.704 31.8714C105.644 31.812 105.555 31.8417 105.525 31.9011C105.496 31.9606 105.496 32.0498 105.555 32.1093C105.704 32.2282 109.035 34.5768 111.266 33.2985C111.89 34.2498 112.545 35.1714 113.199 36.0336C110.79 37.8769 106.358 35.6769 106.299 35.6471C106.12 35.5579 106.031 35.8255 106.18 35.885C106.388 35.9742 110.849 38.2039 113.348 36.2417C114.181 37.312 115.013 38.3228 115.876 39.1553C113.764 41.385 109.392 40.4039 109.362 40.4039C109.273 40.3742 109.214 40.4337 109.214 40.5228C109.214 40.612 109.243 40.6715 109.333 40.7012C109.541 40.7607 113.883 41.7121 116.114 39.3931C116.471 39.7499 116.857 40.0769 117.214 40.3445C121.289 43.4959 119.326 46.4391 119.266 46.8554C119.147 47.0932 119.237 47.4202 119.475 47.5689C120.486 48.3121 121.259 45.4283 121.081 43.8823C120.724 41.2661 119.147 40.1958 117.274 38.6201C118.999 35.4093 117.452 32.4363 117.452 32.4066V32.3768C117.422 32.3174 117.333 32.2876 117.274 32.3174C117.214 32.3471 117.184 32.4363 117.214 32.4957C117.244 32.5255 118.672 35.3498 117.066 38.412C116.262 37.7282 115.787 37.2525 114.984 36.3904C115.876 34.3093 113.853 30.7119 113.764 30.5336C113.764 30.5336 113.764 30.5336 113.764 30.5038C113.734 30.4444 113.645 30.4146 113.586 30.4741C113.526 30.5038 113.496 30.593 113.526 30.6525C113.556 30.6822 115.489 34.1309 114.775 36.1228C113.943 35.2012 113.14 34.2498 112.336 33.2093C112.545 31.7525 110.671 28.3335 110.611 28.1849C110.582 28.1254 110.492 28.0957 110.433 28.1254C110.255 28.1849 110.225 28.2741 110.284 28.3633Z" fill="#41740E"/>
<path d="M147.581 66.1204C147.581 66.1204 144.637 64.0096 145.618 60.5906C146.6 57.1716 155.582 56.9041 158.169 56.25C160.757 55.6257 160.935 54.3473 160.935 54.3473C160.935 54.3473 163.731 66.6555 155.998 70.5502C151.388 72.8988 148.86 70.1339 147.581 66.1204Z" fill="#69C80A"/>
<path d="M156.147 58.3906C155.582 59.0149 154.243 60.6798 154.005 61.6609C156.117 59.9663 158.169 58.0635 159.924 56.2797C159.091 57.35 157.961 58.6581 156.682 59.996C157.515 60.7987 159.478 59.7581 159.508 59.7284C159.656 59.669 159.746 59.8473 159.627 59.9365C159.538 59.996 157.485 61.0663 156.534 60.1446C155.968 60.7392 155.344 61.3636 154.719 61.9284C156.206 63.3555 159.24 62.2555 159.27 62.2555C159.329 62.2257 159.389 62.2555 159.419 62.3149C159.448 62.3744 159.419 62.4338 159.359 62.4636C159.21 62.523 156.147 63.623 154.541 62.0771C153.886 62.7014 153.202 63.296 152.518 63.8312C154.154 65.8825 158.11 65.169 158.14 65.1393C158.288 65.1095 158.348 65.3474 158.199 65.3771C158.021 65.4069 154.035 66.1501 152.34 63.9798C151.477 64.6636 150.645 65.2582 149.812 65.7339C151.15 68.0231 154.838 68.2907 154.868 68.2907C154.927 68.2907 154.987 68.3501 154.987 68.4096C154.987 68.469 154.927 68.5285 154.868 68.5285C154.69 68.5285 151.001 68.2609 149.604 65.8528C149.247 66.0609 148.89 66.2393 148.563 66.3582C144.756 67.9636 145.826 70.788 145.826 71.1447C145.886 71.3826 145.767 71.5907 145.559 71.6799C144.607 72.0366 144.488 69.5393 144.875 68.3204C145.588 66.2987 147.046 65.7933 148.83 64.9609C147.998 61.9582 149.723 59.9365 149.723 59.9068C149.723 59.9068 149.723 59.9068 149.752 59.9068C149.782 59.8771 149.871 59.8771 149.901 59.9068C149.961 59.9365 149.961 60.0257 149.901 60.0852C149.871 60.1149 148.235 62.0474 149.038 64.9014C149.782 64.5447 150.288 64.2771 151.061 63.742C150.704 61.8393 152.935 59.4311 153.024 59.3122C153.054 59.2825 153.143 59.2825 153.173 59.3122C153.232 59.3717 153.232 59.4311 153.173 59.4906C153.143 59.5203 151.001 61.8392 151.239 63.623C152.042 63.0879 152.875 62.4933 153.678 61.8392C153.738 60.6203 155.82 58.3014 155.909 58.1825C155.939 58.123 156.028 58.123 156.087 58.1825C156.177 58.2716 156.206 58.3608 156.147 58.3906Z" fill="#41740E"/>
<path d="M132.978 48.4905C132.978 48.4905 129.379 48.6391 128.011 45.3688C126.672 42.0985 133.543 36.3012 135.208 34.2201C136.844 32.1092 136.22 31.0092 136.22 31.0092C136.22 31.0092 146.035 38.9769 142.347 46.8256C140.175 51.4635 136.487 50.8392 132.978 48.4905Z" fill="#69C80A"/>
<path d="M134.97 37.1336C134.911 37.9958 134.881 40.1066 135.298 41.0282C135.922 38.412 136.339 35.6174 136.636 33.1498C136.636 34.5174 136.547 36.2417 136.368 38.0552C137.528 38.1742 138.421 36.1525 138.421 36.1228C138.48 35.9741 138.688 36.0633 138.629 36.212C138.599 36.3012 137.647 38.4417 136.339 38.2931C136.249 39.1255 136.16 39.958 136.011 40.8201C138.064 41.0282 139.789 38.2931 139.789 38.2634C139.818 38.2039 139.908 38.2039 139.937 38.2336C139.997 38.2633 139.997 38.3525 139.967 38.3823C139.878 38.5012 138.153 41.2958 135.952 41.058C135.803 41.9499 135.655 42.8418 135.446 43.6742C138.004 44.2688 140.651 41.2661 140.681 41.2364C140.77 41.1174 140.949 41.2661 140.859 41.385C140.74 41.5337 138.064 44.5364 135.387 43.9121C135.149 44.9823 134.822 45.9634 134.495 46.8553C136.963 47.8364 140.027 45.7553 140.056 45.7256C140.116 45.6959 140.175 45.6959 140.235 45.7553C140.265 45.8148 140.265 45.8742 140.205 45.904C140.056 45.9932 137.023 48.0743 134.435 47.0634C134.286 47.4499 134.108 47.8067 133.93 48.104C131.907 51.7013 134.524 53.277 134.733 53.5743C134.911 53.723 134.97 53.9608 134.852 54.1689C134.346 55.0311 132.68 53.1581 132.234 51.9392C131.55 49.8878 132.383 48.6094 133.275 46.8553C130.747 45.0121 130.866 42.3364 130.866 42.3066C130.866 42.3066 130.866 42.3066 130.866 42.2769C130.866 42.2174 130.926 42.1877 130.985 42.1877C131.045 42.1877 131.104 42.2472 131.104 42.3066C131.104 42.3364 131.015 44.8634 133.394 46.6175C133.751 45.8742 133.989 45.3391 134.286 44.4769C132.829 43.1985 133.097 39.9282 133.097 39.7796C133.097 39.7796 133.097 39.7796 133.097 39.7499C133.097 39.6904 133.156 39.6607 133.216 39.6607C133.275 39.6607 133.335 39.7201 133.335 39.7796C133.335 39.8093 133.067 42.9607 134.376 44.2094C134.673 43.2877 134.97 42.3066 135.208 41.2958C134.495 40.285 134.703 37.1931 134.733 37.0444C134.733 36.985 134.792 36.9255 134.852 36.9255C134.911 37.0147 134.97 37.0741 134.97 37.1336Z" fill="#41740E"/>
</svg>
