<svg width="101" height="101" viewBox="0 0 101 101" fill="none" xmlns="http://www.w3.org/2000/svg">
<path d="M78.6299 23.039H75.3179V15.593C75.3179 14.764 74.6469 14.093 73.8179 14.093H25.3499C24.5209 14.093 23.8499 14.764 23.8499 15.593V23.039H20.5359C19.7069 23.039 19.0359 23.71 19.0359 24.539V32.105C19.0359 32.934 19.7069 33.605 20.5359 33.605H24.0129L30.2369 87.65C30.3239 88.407 30.9649 88.979 31.7269 88.979H67.4419C68.2039 88.979 68.8449 88.408 68.9319 87.65L75.1549 33.605H78.6299C79.4589 33.605 80.1299 32.934 80.1299 32.105V24.539C80.1299 23.711 79.4589 23.039 78.6299 23.039ZM26.8499 17.094H72.3179V23.04H26.8499V17.094ZM67.6409 72.637H31.5269L28.7089 48.168H70.4579L67.6409 72.637ZM33.0639 85.979L31.8729 75.637H67.2949L66.1039 85.979H33.0639ZM70.8039 45.168H28.3639L27.0319 33.606H72.1349L70.8039 45.168ZM77.1299 30.605H73.8179H25.3499H22.0359V26.039H25.3499H73.8179H77.1299V30.605Z" fill="black"/>
</svg>
