<svg width="101" height="101" viewBox="0 0 101 101" fill="none" xmlns="http://www.w3.org/2000/svg">
<path d="M81.622 65.993C81.65 65.93 81.669 65.863 81.689 65.796C82.752 62.503 83.332 58.996 83.332 55.355C83.332 38.206 70.592 23.983 54.082 21.636V16.156C54.082 15.327 53.41 14.656 52.582 14.656H50.761V4.41602C50.761 3.58702 50.09 2.91602 49.261 2.91602C48.432 2.91602 47.761 3.58702 47.761 4.41602V14.656H45.948C45.119 14.656 44.448 15.327 44.448 16.156V21.636C31.856 23.427 21.46 32.123 17.235 43.76C17.223 43.789 17.216 43.819 17.205 43.849C15.91 47.445 15.2 51.318 15.2 55.355C15.2 58.954 15.765 62.423 16.805 65.682C16.828 65.799 16.869 65.909 16.918 66.015C21.403 79.59 34.2009 89.418 49.2599 89.421H49.261H49.262C49.263 89.421 49.2649 89.421 49.2659 89.421C49.4949 89.421 49.721 89.408 49.948 89.404C49.996 89.409 50.0439 89.421 50.0919 89.421C50.1499 89.421 50.207 89.402 50.264 89.396C64.898 88.971 77.242 79.28 81.622 65.993ZM18.2 55.355C18.2 52.042 18.727 48.851 19.691 45.855H30.821C29.999 48.726 29.503 51.8 29.503 55.059C29.503 58.197 29.911 61.139 30.597 63.885H19.401C18.625 61.173 18.2 58.313 18.2 55.355ZM32.5029 55.059C32.5029 51.798 33.064 48.719 33.979 45.855H47.7599V63.885H33.719C32.96 61.15 32.5029 58.204 32.5029 55.059ZM64.2559 42.855H50.761V25.232C53.784 27.759 60.5299 34.082 64.2559 42.855ZM47.761 25.942V42.855H35.09C38.502 34.817 44.46 28.833 47.761 25.942ZM47.761 66.885V84.85C44.342 81.954 38.0299 75.721 34.6969 66.885H47.761V66.885ZM50.761 85.53V66.885H64.647C61.017 76.488 53.872 83.022 50.761 85.53ZM50.761 63.885V45.855H65.37C66.286 48.72 66.8489 51.798 66.8489 55.059C66.8489 58.203 66.3909 61.149 65.6289 63.885H50.761ZM68.5299 45.855H78.8399C79.8049 48.851 80.331 52.042 80.331 55.355C80.331 58.313 79.9069 61.173 79.1309 63.885H68.7549C69.4409 61.139 69.8489 58.197 69.8489 55.059C69.8489 51.799 69.3519 48.726 68.5299 45.855ZM77.6969 42.855H67.5319C64.3749 34.593 58.6779 28.332 54.8489 24.801C65.0959 26.669 73.6009 33.575 77.6969 42.855ZM47.4469 21.291V17.656H51.082V21.291H50.1349C50.1299 21.291 50.1239 21.291 50.1189 21.291H49.344C49.318 21.291 49.2929 21.289 49.2669 21.289C49.2409 21.289 49.2159 21.291 49.1899 21.291H47.4469V21.291ZM44.692 24.628C40.865 28.124 35.03 34.452 31.819 42.855H20.835C25.065 33.272 33.996 26.214 44.692 24.628ZM20.428 66.885H31.483C34.566 75.944 40.576 82.495 44.554 86.064C33.561 84.384 24.454 76.918 20.428 66.885ZM55 85.882C58.978 82.274 64.838 75.791 67.869 66.885H78.1039C74.2039 76.605 65.5319 83.907 55 85.882Z" fill="black"/>
<path d="M15.4379 23.835C16.2539 23.694 16.8029 22.919 16.6629 22.103C16.0239 18.385 18.5309 14.84 22.2509 14.2C22.2689 14.197 22.2839 14.19 22.3019 14.186C22.3569 14.178 22.4119 14.174 22.4669 14.165C23.2829 14.025 23.8319 13.249 23.6919 12.433C23.5509 11.616 22.7759 11.067 21.9599 11.208C18.2479 11.848 14.6969 9.34004 14.0579 5.62004C13.9439 4.95804 13.4089 4.48204 12.7779 4.39604C12.5019 4.25704 12.1829 4.19904 11.8549 4.25504C11.0389 4.39604 10.4899 5.17104 10.6299 5.98704C10.9399 7.78804 10.5289 9.60204 9.47389 11.095C8.41789 12.588 6.84489 13.581 5.04289 13.889C5.01789 13.893 4.99489 13.904 4.97089 13.909C4.92289 13.917 4.87489 13.918 4.82689 13.927C4.01089 14.067 3.46289 14.843 3.60289 15.659C3.74389 16.475 4.51789 17.027 5.33589 16.883C7.13589 16.573 8.95089 16.984 10.4439 18.039C11.9369 19.094 12.9289 20.667 13.2379 22.468C13.3519 23.131 13.8889 23.596 14.5219 23.68C14.7259 23.783 14.9459 23.857 15.1839 23.857C15.2669 23.857 15.3519 23.849 15.4379 23.835ZM12.1739 15.588C11.5929 15.177 10.9749 14.84 10.3359 14.568C10.9229 14.056 11.4609 13.479 11.9219 12.826C12.4189 12.122 12.8069 11.365 13.1009 10.579C14.1269 11.866 15.4599 12.876 16.9689 13.517C15.7299 14.594 14.7759 15.965 14.1979 17.502C13.6239 16.782 12.9469 16.135 12.1739 15.588Z" fill="black"/>
<path d="M95.7229 90.822C92.5199 89.76 90.7789 86.293 91.8399 83.093C92.0489 82.461 91.8119 81.795 91.3049 81.42C91.1269 81.176 90.8769 80.982 90.5679 80.88C89.7779 80.618 88.9319 81.046 88.6719 81.832C88.1579 83.383 87.0719 84.641 85.6109 85.374C84.1509 86.107 82.4939 86.228 80.9429 85.713C80.9209 85.706 80.8979 85.704 80.8749 85.698C80.8329 85.683 80.7929 85.664 80.7499 85.649C79.9649 85.389 79.1149 85.815 78.8539 86.601C78.5929 87.387 79.0189 88.236 79.8059 88.497C83.0089 89.559 84.7509 93.027 83.6899 96.228C83.4809 96.858 83.7179 97.523 84.2239 97.899C84.4019 98.143 84.6519 98.337 84.9609 98.439C85.1179 98.491 85.2759 98.515 85.4329 98.515C86.0629 98.515 86.6489 98.117 86.8569 97.487C87.3709 95.936 88.4569 94.678 89.9169 93.945C91.3779 93.214 93.0369 93.091 94.5869 93.604C94.6029 93.609 94.6199 93.61 94.6359 93.615C94.6839 93.632 94.7279 93.654 94.7759 93.669C94.9329 93.721 95.0919 93.745 95.2489 93.745C95.8779 93.745 96.4639 93.347 96.6729 92.718C96.9349 91.931 96.5089 91.082 95.7229 90.822ZM88.5719 91.264C87.9269 91.588 87.3379 91.987 86.7989 92.439C86.5149 91.095 85.9389 89.827 85.1039 88.741C85.7379 88.579 86.3599 88.355 86.9589 88.054C87.6039 87.73 88.1929 87.33 88.7319 86.878C89.0159 88.223 89.5909 89.49 90.4259 90.577C89.7929 90.739 89.1709 90.964 88.5719 91.264Z" fill="black"/>
</svg>
