<svg width="101" height="101" viewBox="0 0 101 101" fill="none" xmlns="http://www.w3.org/2000/svg">
<path d="M96.5 60H93C92.5 40.9 78 25.2 59.4 22.8C60.4 21.7 61.1 20.1 61.1 18.5C61.1 14.9 58.2 12 54.6 12C51 12 48 14.9 48 18.5C48 20.2 48.6 21.7 49.7 22.8C31 25.2 16.5 40.9 16 60H11.5C10.7 60 10 60.7 10 61.5C10 62.3 10.7 63 11.5 63H25.3C25.1 63.2 24.9 63.4 24.6 63.6C21.1 67.1 20 71.8 21.9 75H4.5C3.7 75 3 75.7 3 76.5C3 77.3 3.7 78 4.5 78H26.5C26.6 78 26.6 78 26.7 78C27 78 27.2 78 27.5 78C30.1 78 33 76.7 35.4 74.4C38.9 70.9 40 66.2 38.1 63H76.3C76.1 63.2 75.9 63.4 75.6 63.6C72.1 67.1 71 71.9 72.9 75H61.5C60.7 75 60 75.7 60 76.5C60 77.3 60.7 78 61.5 78H77.5C77.6 78 77.6 78 77.7 78C78 78 78.2 78 78.5 78C81.1 78 84 76.7 86.4 74.4C89.9 70.9 91 66.1 89.1 63H96.5C97.3 63 98 62.3 98 61.5C98 60.7 97.3 60 96.5 60ZM54.5 15C56.4 15 58 16.6 58 18.5C58 20.4 56.4 22 54.5 22C52.6 22 51 20.4 51 18.5C51 16.6 52.6 15 54.5 15ZM35.1 63.9C36.9 65.7 36 69.5 33.3 72.2C30.6 74.9 26.7 75.8 25 74C23.2 72.2 24.1 68.4 26.8 65.7C28.6 63.9 30.8 63 32.6 63C33.5 63 34.4 63.3 35.1 63.9ZM33 60C32.7 60 32.3 60 32 60H19C19.5 40.9 35.2 25.5 54.5 25.5C73.7 25.5 89.4 40.9 90 60H84C83.7 60 83.3 60 83 60H33ZM86.1 63.9C87.9 65.7 87 69.5 84.3 72.2C81.6 74.9 77.7 75.8 76 74C74.2 72.2 75.1 68.4 77.8 65.7C79.6 63.9 81.8 63 83.6 63C84.5 63 85.4 63.3 86.1 63.9Z" fill="black"/>
<path d="M46.4 32.6C38.1 35 31.2 40.9 27.6 48.8C27.3 49.6 27.6 50.4 28.3 50.8C28.5 50.9 28.7 50.9 28.9 50.9C29.5 50.9 30 50.6 30.3 50C33.5 42.9 39.7 37.6 47.2 35.5C48 35.3 48.5 34.4 48.2 33.6C48.1 32.9 47.2 32.4 46.4 32.6Z" fill="black"/>
<path d="M65.5 87H25.5C24.7 87 24 87.7 24 88.5C24 89.3 24.7 90 25.5 90H65.5C66.3 90 67 89.3 67 88.5C67 87.7 66.3 87 65.5 87Z" fill="black"/>
</svg>
