<svg width="101" height="101" viewBox="0 0 101 101" fill="none" xmlns="http://www.w3.org/2000/svg">
<path d="M69.1378 19.833C62.5928 18.405 55.6888 24.441 53.7518 33.291C53.5738 34.101 54.0868 34.9 54.8968 35.077C55.0038 35.1 55.1128 35.112 55.2178 35.112C55.9078 35.112 56.5288 34.633 56.6818 33.932C58.2658 26.698 63.5648 21.689 68.4988 22.764C69.3108 22.948 70.1068 22.428 70.2838 21.618C70.4608 20.809 69.9468 20.01 69.1378 19.833Z" fill="black"/>
<path d="M77.7449 12.101C69.4939 8.275 59.3339 11.679 52.1719 19.764C48.3449 8.946 39.4979 1.892 30.2769 2.701C18.5209 3.738 10.0399 16.926 11.3709 32.099C12.4559 44.399 19.4649 54.594 28.5839 57.354L29.3639 66.226C29.4319 67.006 30.0869 67.594 30.8559 67.594C30.8999 67.594 30.9449 67.592 30.9889 67.588L34.1189 67.313C33.3209 70.024 32.2789 75.384 34.8029 79.668C37.1939 83.74 35.5099 88.903 34.8759 90.848C34.7679 91.18 34.6859 91.438 34.6419 91.608C34.4379 92.411 34.9239 93.227 35.7269 93.431C35.8509 93.462 35.9749 93.477 36.0969 93.477C36.7669 93.477 37.3779 93.025 37.5499 92.346C37.5819 92.218 37.6469 92.026 37.7279 91.778C38.4769 89.483 40.4639 83.386 37.3889 78.147C35.0199 74.125 36.8769 68.379 37.3689 67.028L40.9089 66.717C41.7339 66.645 42.3449 65.917 42.2719 65.092L41.4919 56.218C42.9409 55.48 44.3009 54.523 45.5649 53.374C46.4569 55.335 47.6029 57.119 49.0289 58.635L45.2849 66.714C44.9359 67.466 45.2639 68.358 46.0149 68.706L48.8179 70.005C48.1299 71.915 46.1319 78.489 49.1149 83.557C51.5049 87.628 49.8219 92.789 49.1879 94.733C49.0799 95.064 48.9979 95.322 48.9549 95.492C48.7509 96.295 49.2359 97.111 50.0389 97.315C50.1629 97.346 50.2869 97.361 50.4089 97.361C51.0789 97.361 51.6889 96.909 51.8619 96.23C51.8939 96.103 51.9589 95.911 52.0399 95.663C52.7879 93.369 54.7759 87.275 51.7009 82.037C49.5029 78.303 50.9419 73.089 51.5549 71.274L55.0419 72.89C55.2459 72.984 55.4609 73.029 55.6719 73.029C56.2369 73.029 56.7789 72.708 57.0329 72.161L60.7849 64.083C70.2859 64.605 80.3589 57.361 85.5509 46.169C91.9529 32.348 88.4519 17.065 77.7449 12.101ZM39.3109 53.93C38.7179 54.187 38.3549 54.794 38.4119 55.438L39.1519 63.86L32.2209 64.469L31.4799 56.047C31.4229 55.402 30.9589 54.867 30.3299 54.719C22.0749 52.777 15.3579 43.153 14.3589 31.836C13.1719 18.311 20.4319 6.581 30.5409 5.69C38.8699 4.958 46.9279 12.038 49.9259 22.598C48.7169 24.303 47.6279 26.159 46.7009 28.158C43.2079 35.686 42.5229 43.718 44.4239 50.287C42.8869 51.889 41.1749 53.125 39.3109 53.93ZM82.8289 44.908C78.0519 55.206 68.4539 61.983 60.0359 61.013C59.3899 60.938 58.7769 61.285 58.5049 61.871L54.9429 69.538L48.6369 66.614L52.1919 58.945C52.4629 58.357 52.3289 57.662 51.8559 57.219C45.6629 51.419 44.6389 39.728 49.4209 29.42C50.3449 27.427 51.4399 25.587 52.6609 23.918C52.7439 23.831 52.8169 23.736 52.8759 23.632C59.2079 15.181 68.8509 11.284 76.4829 14.822C85.6889 19.091 88.5359 32.588 82.8289 44.908Z" fill="black"/>
</svg>
