<svg width="48" height="29" viewBox="0 0 48 29" fill="none" xmlns="http://www.w3.org/2000/svg">
<path d="M47.8526 9.32362C47.7878 9.2349 47.706 9.16007 47.6118 9.10353C47.5177 9.047 47.4132 9.0099 47.3045 8.99444C43.9892 8.62439 40.6401 8.68155 37.3393 9.16452C36.8515 7.12561 36.1382 5.14747 35.2126 3.2667C35.1121 3.07622 34.941 2.93276 34.7361 2.86711C34.5311 2.80146 34.3086 2.81886 34.1163 2.91558C32.2935 3.86196 30.5454 4.9459 28.8871 6.158C27.5615 4.05431 26.044 2.07809 24.354 0.254705C24.2772 0.174206 24.1849 0.11013 24.0827 0.0663514C23.9805 0.0225725 23.8704 0 23.7593 0C23.6481 0 23.538 0.0225725 23.4358 0.0663514C23.3336 0.11013 23.2413 0.174206 23.1645 0.254705C21.5494 1.98085 20.0893 3.8461 18.8014 5.82882C17.1224 4.59586 15.3502 3.49528 13.5009 2.53702C13.4024 2.49104 13.2957 2.46507 13.1871 2.46062C13.0785 2.45616 12.9701 2.47331 12.8681 2.51106C12.7662 2.54882 12.6727 2.60643 12.5931 2.68058C12.5136 2.75472 12.4495 2.84392 12.4046 2.94301C11.5839 4.88092 10.9167 6.88046 10.4094 8.92312C7.18277 8.47214 3.91252 8.42606 0.674489 8.78596H0.63612H0.570344H0.488123L0.405903 8.82437L0.340126 8.85728L0.263387 8.91215L0.208573 8.95604L0.164723 9.07674L0.126353 9.12063C0.103979 9.1521 0.0838318 9.1851 0.0660581 9.21938V9.25778C0.0449294 9.30547 0.0284099 9.35508 0.0167257 9.40592C-0.00557524 9.51451 -0.00557524 9.62651 0.0167257 9.7351C0.0167257 9.86128 0.203092 10.8324 0.564862 12.1985C1.46381 15.7426 3.5851 22.1671 7.64679 25.1791C10.7712 27.4944 14.3066 28.7398 17.3324 28.7398C18.6024 28.7653 19.8617 28.5027 21.0158 27.9717C21.8745 28.4394 22.8365 28.6844 23.8141 28.6844C24.7916 28.6844 25.7537 28.4394 26.6123 27.9717C27.8811 28.6785 29.3156 29.0327 30.7672 28.9976C33.76 28.9976 37.2516 27.7577 40.4199 25.4096C46.0054 21.207 47.9074 10.4099 47.9842 9.95455C48.0058 9.84593 48.0053 9.73407 47.9827 9.62566C47.9601 9.51725 47.9158 9.41452 47.8526 9.32362ZM34.0834 4.81385C34.7516 6.33245 35.2889 7.90544 35.6895 9.51564C34.1553 9.84718 32.678 10.4017 31.3044 11.1615C30.8548 9.93503 30.3048 8.74778 29.66 7.61188C31.0737 6.58628 32.5511 5.65171 34.0834 4.81385ZM13.5721 4.42981C15.092 5.27188 16.5567 6.21012 17.9572 7.23881C17.3079 8.36008 16.7471 9.5304 16.2799 10.7391C14.9378 10.0375 13.5069 9.52072 12.0264 9.20292C12.4435 7.5817 12.9597 5.98766 13.5721 4.42981ZM8.56766 23.8679C8.326 23.6859 8.09366 23.4918 7.87152 23.2864L7.74545 23.1711C7.52985 22.97 7.32156 22.7578 7.12058 22.5347L7.00547 22.4031C6.80266 22.1726 6.60533 21.9312 6.41348 21.6789C6.22163 21.421 6.03527 21.1302 5.86534 20.8833L5.75024 20.7242C5.57849 20.4609 5.41222 20.1902 5.25143 19.9123L5.16373 19.7586C5.00477 19.4788 4.85129 19.21 4.70878 18.9137V18.8808C4.56078 18.59 4.41826 18.2883 4.28123 17.992L4.19901 17.8165C4.06745 17.5275 3.94321 17.2404 3.82628 16.9551L3.7605 16.7905C3.64539 16.5107 3.53576 16.2419 3.43162 15.9511V15.8908C3.32199 15.6 3.21784 15.3147 3.12466 15.0294L3.06437 14.8538C2.97118 14.5795 2.88348 14.3052 2.80126 14.0528L2.75193 13.8937C2.67519 13.6469 2.59845 13.4 2.53267 13.1641V13.0872C2.46141 12.8349 2.39564 12.599 2.32986 12.3631L2.28601 12.2094C2.22572 11.99 2.1709 11.776 2.12157 11.573L2.09416 11.4523L1.96809 10.9037V10.8433C1.92972 10.6678 1.89135 10.5032 1.85846 10.3605V10.3166C4.33604 10.1137 11.4618 9.80642 15.8524 12.3137C15.5516 13.3686 15.393 14.4591 15.381 15.5561C15.381 20.4005 16.998 24.5537 19.4536 26.8196C16.4444 27.7029 12.2237 26.5836 8.56766 23.8679ZM21.4763 26.3752C18.8014 24.7786 16.9267 20.5487 16.9267 15.578C16.9434 14.4595 17.1282 13.3498 17.4749 12.2862C18.8726 7.90815 22.3368 3.64526 23.7346 2.07068C25.2679 3.8235 26.6453 5.70698 27.8511 7.69966C27.877 7.76808 27.912 7.83267 27.9552 7.89169C29.3585 10.2947 30.526 13.0434 30.526 15.5726C30.5425 21.8983 27.4893 27.0335 23.7346 27.0335C22.936 27.024 22.1551 26.7964 21.4763 26.3752ZM39.3839 24.0709C35.4866 26.9622 30.9755 28.0265 28.0813 26.8689C30.5589 24.6086 32.1869 20.4444 32.1869 15.578C32.1781 14.6307 32.0566 13.6877 31.8251 12.769C36.1773 10.0259 43.6429 10.3386 46.1918 10.5471C45.6217 13.1531 43.632 20.9217 39.3839 24.0709Z" fill="#E78C14"/>
</svg>
