<svg width="34" height="34" viewBox="0 0 34 34" fill="none" xmlns="http://www.w3.org/2000/svg">
<path d="M32.5024 17.0063C33.4058 16.4288 33.9996 15.4725 33.9996 14.3908C33.9996 12.6364 32.4329 11.2096 30.5072 11.2096H21.2018C21.6417 10.3908 22.0871 9.04892 21.9853 7.05086C21.7853 2.95484 19.2824 0.829842 17.8348 0.219846C16.9811 -0.139805 16.0519 -0.054398 15.3501 0.448251C14.6454 0.95286 13.8501 2.11173 14.0627 4.76798C14.2829 7.52844 10.7443 10.5228 9.02019 11.8094V10.7586C9.02019 10.4339 8.75546 10.171 8.42839 10.171H0.591799C0.264731 10.171 0 10.4339 0 10.7586V31.9859C0 32.3103 0.264731 32.5735 0.591799 32.5735H8.42839C8.75546 32.5735 9.02019 32.3103 9.02019 31.9859V30.9136C11.2509 31.7101 17.5235 33.8562 20.6234 33.9569L26.8479 34C28.7713 34 30.336 32.5093 30.336 30.6773C30.336 29.8338 30.003 29.0652 29.4589 28.4779C31.1191 28.2213 32.3919 26.8528 32.3919 25.203C32.3919 24.3243 32.0285 23.5262 31.4407 22.9315C32.9142 22.5413 34 21.2555 34 19.7299C33.9996 18.6032 33.4062 17.6073 32.5024 17.0063ZM1.1836 31.3978V11.3459H7.83659V12.9209C7.8358 12.9365 7.8362 12.9522 7.83659 12.9679V30.0626C7.8362 30.0787 7.83541 30.0948 7.83659 30.1108V31.3982H1.1836V31.3978ZM30.5072 21.88H27.4736C27.4725 21.88 27.4713 21.8804 27.4697 21.8804H26.8479C26.5212 21.8804 26.2561 22.1437 26.2561 22.4681C26.2561 22.7924 26.5212 23.0557 26.8479 23.0557H28.8975C30.1715 23.0557 31.2079 24.0191 31.2079 25.2027C31.2079 26.3862 30.1715 27.3492 28.8975 27.3492H26.8558C26.853 27.3492 26.8507 27.3488 26.8479 27.3488H24.6725C24.3458 27.3488 24.0807 27.6121 24.0807 27.9365C24.0807 28.2609 24.3458 28.5241 24.6725 28.5241H26.844C26.8452 28.5241 26.8463 28.5245 26.8479 28.5245H26.8558C28.1227 28.5288 29.152 29.4922 29.152 30.677C29.152 31.8609 28.1183 32.8243 26.8519 32.8243L20.6467 32.7816C17.5606 32.6809 10.7167 30.2754 9.02019 29.6626V13.2617C10.302 12.3861 15.5521 8.55058 15.2424 4.67513C15.1106 3.02771 15.3946 1.86531 16.0421 1.40184C16.5806 1.01672 17.1965 1.22867 17.3728 1.30232C18.5659 1.80537 20.6317 3.59422 20.8033 7.10963C20.9591 10.1647 19.7132 11.3075 19.6655 11.3498C19.4765 11.5097 19.4078 11.769 19.493 12.0006C19.5791 12.2317 19.8004 12.3853 20.0485 12.3853H30.5068C31.78 12.3853 32.8156 13.2852 32.8156 14.3912C32.8156 15.5027 31.78 16.4073 30.5068 16.4073H27.9767C27.65 16.4073 27.3849 16.6702 27.3849 16.9949C27.3849 17.3197 27.65 17.5826 27.9767 17.5826H30.5068C31.78 17.5826 32.8156 18.5456 32.8156 19.7299C32.816 20.9151 31.7804 21.88 30.5072 21.88Z" fill="#E78C14"/>
</svg>
