<svg width="31" height="43" viewBox="0 0 31 43" fill="none" xmlns="http://www.w3.org/2000/svg">
<path d="M30.3208 0.0564581C29.9943 -0.0713909 29.6157 0.0229868 29.3843 0.288013C29.3733 0.300084 28.2596 1.54455 23.7576 3.90674C19.1886 6.30624 6.40912 14.116 5.82409 14.4754C1.71722 17.3534 -0.480671 22.1743 0.0888665 27.0578C0.504534 30.6107 2.2851 33.678 4.84276 35.824L1.25285 41.0438C0.99437 41.4197 1.09234 41.9311 1.47092 42.1874C1.61427 42.2845 1.777 42.3306 1.93806 42.3306C2.20318 42.3306 2.46388 42.2049 2.62494 41.9712L6.17611 36.8084C8.34632 38.2229 10.9234 39.046 13.6531 39.046C14.1762 39.046 14.7042 39.0164 15.2361 38.9555C20.0592 38.4018 24.2336 35.2868 26.1724 30.8088C26.214 30.7655 26.2571 30.7122 26.2909 30.6513C28.6941 26.7829 30.2627 16.301 30.3695 13.3736C30.4631 10.5845 30.8466 0.947011 30.8505 0.84989C30.8638 0.500363 30.649 0.185404 30.3208 0.0564581ZM1.73826 26.8691C1.23846 22.5842 3.17123 18.3509 6.739 15.8488C6.87128 15.7682 20.0133 7.73618 24.5347 5.36192C25.2996 4.96026 25.9671 4.59098 26.5593 4.24914L5.77815 34.4643C3.60129 32.5844 2.09581 29.9281 1.73826 26.8691ZM24.9249 29.7075C24.8944 29.7361 24.8601 29.7717 24.8253 29.8151C24.7771 29.8749 24.7378 29.9413 24.7079 30.0126C23.0314 34.0275 19.3286 36.8281 15.0441 37.3192C12.1493 37.6517 9.37193 36.928 7.1043 35.4575L29.0832 3.5018C28.9609 6.59651 28.7716 11.4625 28.7096 13.316C28.5912 16.5298 27.0121 26.1914 24.9249 29.7075Z" fill="#E78C14"/>
</svg>
