<svg width="23" height="34" viewBox="0 0 23 34" fill="none" xmlns="http://www.w3.org/2000/svg">
<path d="M21.6689 23.9018H14.7366C14.3604 23.9018 14.056 24.2067 14.056 24.5824V32.2384H11.6313V24.5824C11.6313 24.2067 11.3269 23.9018 10.9507 23.9018H2.32377L9.04513 17.1795C9.23977 16.9849 9.2983 16.6923 9.19259 16.4377C9.08732 16.1832 8.83914 16.0176 8.56374 16.0176H4.45579L11.3341 9.13923C11.3977 9.07616 11.448 8.99994 11.4829 8.916C11.4843 8.91282 11.4848 8.90919 11.4861 8.90556C11.5165 8.82843 11.5342 8.74495 11.5347 8.65738C11.5347 8.56936 11.5165 8.48588 11.4861 8.40874C11.4848 8.40557 11.4843 8.40194 11.4829 8.39876C11.414 8.23089 11.2801 8.09704 11.1123 8.02808C11.1091 8.02671 11.1055 8.02626 11.1023 8.0249C11.0251 7.9945 10.9417 7.97635 10.8536 7.97635H6.90223L12.8967 1.9823L16.4366 5.55668C16.7011 5.82301 17.1317 5.82574 17.3994 5.56122C17.6662 5.2967 17.6685 4.86567 17.404 4.59843L13.3827 0.53812C13.2552 0.409718 13.0818 0.337124 12.9008 0.33667C12.6994 0.338031 12.546 0.408357 12.4181 0.535851L4.77792 8.17599C4.58328 8.37063 4.52475 8.66328 4.63047 8.91782C4.73573 9.17235 4.98391 9.33796 5.25932 9.33796H9.21119L2.33194 16.2172C2.13684 16.4114 2.07876 16.7045 2.18403 16.9586C2.28929 17.2131 2.53747 17.3787 2.81288 17.3787H6.92128L0.199469 24.1014C0.00482485 24.2961 -0.0537045 24.5887 0.0520115 24.8433C0.157274 25.0978 0.405457 25.2634 0.680863 25.2634H10.2702V32.9194C10.2702 33.2951 10.5746 33.6 10.9507 33.6H14.7366C15.1127 33.6 15.4171 33.2951 15.4171 32.9194V25.263H21.6689C22.0446 25.263 22.3495 24.9581 22.3495 24.5824C22.3495 24.2067 22.0446 23.9018 21.6689 23.9018Z" fill="#E78C14"/>
</svg>
