<svg width="27" height="34" viewBox="0 0 27 34" fill="none" xmlns="http://www.w3.org/2000/svg">
<path d="M25.967 24.1917L19.168 17.3252H23.3136C23.5881 17.3252 23.8358 17.16 23.942 16.9068C24.0473 16.6532 23.9906 16.361 23.7973 16.1659L16.8386 9.13921H20.8223C21.0968 9.13921 21.3445 8.97406 21.4507 8.72089C21.5559 8.46726 21.4992 8.17507 21.3059 7.97997L13.6032 0.20145C13.4761 0.0730485 13.3024 0.000453717 13.1213 0C13.1204 0 13.12 0 13.1195 0C12.9394 0 12.7661 0.0716873 12.6381 0.199182L4.86095 7.97725C4.66631 8.17189 4.60778 8.46454 4.7135 8.71907C4.81876 8.97361 5.06694 9.13921 5.34235 9.13921H9.39494L2.37005 16.1632C2.17541 16.3578 2.11688 16.6505 2.22259 16.905C2.32785 17.1591 2.57604 17.3252 2.85144 17.3252H7.06284L0.19947 24.1894C0.00482518 24.3841 -0.0537046 24.6767 0.0520114 24.9313C0.157274 25.1858 0.405457 25.3514 0.680863 25.3514H10.4562V33.1576C10.4562 33.5333 10.7611 33.8382 11.1368 33.8382H14.9897C15.3654 33.8382 15.6703 33.5333 15.6703 33.1576V25.3514H25.4837C25.7582 25.3514 26.006 25.1863 26.1121 24.9326C26.2174 24.679 26.1607 24.3873 25.967 24.1917ZM14.9897 23.9903C14.6141 23.9903 14.3092 24.2952 14.3092 24.6708V32.477H11.8173V24.6708C11.8173 24.2952 11.5124 23.9903 11.1368 23.9903H2.32377L9.18669 17.126C9.38133 16.9313 9.43986 16.6387 9.33415 16.3842C9.22843 16.1296 8.9807 15.964 8.7053 15.964H4.4939L11.5183 8.94049C11.5814 8.87742 11.6322 8.80165 11.6667 8.71771C11.6681 8.71408 11.6685 8.71045 11.6699 8.70728C11.7003 8.63014 11.718 8.54711 11.718 8.45909C11.718 8.37107 11.6998 8.28804 11.6694 8.21091C11.6681 8.20773 11.6676 8.2041 11.6663 8.20093C11.5973 8.03305 11.4634 7.89966 11.2956 7.83024C11.2924 7.82888 11.2888 7.82843 11.2851 7.82707C11.208 7.79667 11.1245 7.77852 11.0369 7.77852H6.98435L13.1168 1.64563L19.1898 7.77852H15.2102C14.8346 7.77852 14.5297 8.08296 14.5297 8.45909V8.45955C14.5297 8.46 14.5297 8.46045 14.5297 8.46091C14.5297 8.54394 14.5469 8.62288 14.5746 8.69639C14.5778 8.70546 14.5791 8.71454 14.5827 8.72316C14.6136 8.79666 14.6585 8.86199 14.7116 8.91962C14.7179 8.92642 14.7198 8.9355 14.7266 8.9423L21.6802 15.9645H17.5351C17.2606 15.9645 17.0129 16.1296 16.9067 16.3828C16.8014 16.6364 16.8581 16.9286 17.0514 17.1237L23.8504 23.9907H14.9897V23.9903Z" fill="#E78C14"/>
</svg>
