<svg width="38" height="38" viewBox="0 0 38 38" fill="none" xmlns="http://www.w3.org/2000/svg">
<path d="M34.8024 29.5195C36.8415 26.5073 38 22.8927 38 19C38 8.52683 29.4732 0 19 0C8.52683 0 0 8.52683 0 19C0 29.4732 8.52683 38 19 38C25.3951 38 31.0488 34.8024 34.5244 29.9366C34.5707 29.8902 34.5707 29.8902 34.6171 29.8439C34.6634 29.7976 34.7561 29.6585 34.8024 29.5195ZM36.6098 19C36.6098 20.9463 36.2854 22.8 35.7293 24.5146C35.7756 22.7537 35.4976 20.9927 34.7098 20.0195C33.8756 19 32.8098 19.0463 31.9756 19.139C30.8171 19.2317 29.7049 19.3244 28.4073 16.5902C27.3878 14.4122 28.361 13.578 30.0293 12.4659C31.2341 11.6781 32.8098 10.5659 31.6976 8.57317C30.678 6.76585 29.1488 6.8122 27.8976 6.8122C27.1098 6.8122 26.3683 6.81219 25.7195 6.39512C24.7 5.74634 23.9122 4.3561 23.1244 3.05854C22.8463 2.59512 22.5683 2.13171 22.3366 1.71463C30.4927 3.33659 36.6098 10.4732 36.6098 19ZM14.0878 2.08537L14.1341 2.13171C15.2 3.0122 17.8415 5.74634 17.5634 8.06341C17.4707 8.85122 15.8951 9.5 14.5512 10.1488C12.6512 10.9829 10.4732 11.9561 10.0561 13.8561C9.77805 15.1073 10.3341 16.4976 11.8171 18.1659C15.1537 21.9659 17.9341 22.8 19.9732 23.4488C21.5024 23.9122 22.522 24.2366 23.2171 25.5805C24.0976 27.2024 23.4488 27.8512 21.6878 29.3805C20.0659 30.8171 17.8415 32.7634 17.5634 36.6098C16.4049 36.5171 15.2927 36.3317 14.1805 36.0073C14.3659 30.4463 12.0024 28.639 10.2415 27.2951C9.68537 26.878 9.17561 26.461 8.89756 26.0439C8.66585 25.6732 9.17561 24.7927 9.63902 24.0049C10.3341 22.8 11.122 21.4098 10.6122 20.0659C10.2415 19.0927 9.31463 18.3976 7.73902 17.8415C2.4561 16.0805 3.15122 11.3537 3.19756 11.1683C3.19756 11.1683 3.19756 11.1683 3.19756 11.122C5.46829 6.76585 9.36098 3.47561 14.0878 2.08537ZM1.39024 19C1.39024 17.239 1.66829 15.5244 2.13171 13.9488C2.64146 15.8024 3.98537 18.0268 7.36829 19.139C8.52683 19.5098 9.22195 19.9732 9.40732 20.5293C9.68537 21.2707 9.08293 22.2902 8.52683 23.3098C7.83171 24.4683 7.13659 25.7195 7.78537 26.7854C8.1561 27.4341 8.80488 27.8976 9.45366 28.4073C10.9829 29.5659 12.8829 31.0024 12.8366 35.5439C6.16342 32.9951 1.39024 26.5537 1.39024 19ZM19 36.6098C19.2317 33.3659 21.039 31.7902 22.6146 30.3537C24.1902 28.9634 25.8585 27.4805 24.422 24.839C23.4024 22.9854 22.0122 22.5683 20.3439 22.0585C18.3976 21.4561 15.9415 20.6683 12.8366 17.1927C11.7244 15.9415 11.2146 14.8756 11.4 14.0878C11.678 12.8829 13.4854 12.0951 15.1073 11.3537C16.961 10.5195 18.7683 9.73171 18.9537 8.20244C19.278 5.51463 16.9146 2.82683 15.7098 1.66829C16.7756 1.48293 17.8878 1.3439 19 1.3439C19.5098 1.3439 20.0195 1.39024 20.4829 1.39024C20.5293 1.43659 20.5293 1.48293 20.5756 1.48293C21.039 1.99268 21.5488 2.82683 22.0585 3.66098C22.8463 5.05122 23.7732 6.62683 25.0707 7.46098C26.0439 8.10976 27.0634 8.10976 27.9902 8.06341C29.2878 8.06341 29.9829 8.10976 30.539 9.12927C31.0024 9.91707 30.678 10.2415 29.2878 11.2146C27.8049 12.1878 25.6268 13.7171 27.1561 17.1C28.8244 20.7146 30.678 20.5756 32.0683 20.4366C32.8561 20.3902 33.2268 20.3439 33.5976 20.8073C34.8024 22.3829 34.2927 27.3415 33.6902 28.7317C30.539 33.4585 25.1171 36.6098 19 36.6098Z" fill="#E78C14"/>
</svg>
