<svg width="7" height="12" viewBox="0 0 7 12" fill="none" xmlns="http://www.w3.org/2000/svg">
  <g clip-path="url(#clip0_15_8)">
    <path fill-rule="evenodd" clip-rule="evenodd" d="M0.190674 2.22119H5.98743L5.95965 2.4273C5.80715 3.55861 5.65465 4.69006 5.50215 5.82152L5.49692 5.86033C5.34268 7.00472 5.18844 8.14912 5.03419 9.29336L5.01296 9.45089H1.04453L1.02548 9.28966C0.755208 7.00142 0.484934 4.71318 0.214661 2.42433L0.190674 2.22119ZM0.599775 2.58483C0.855762 4.75266 1.11175 6.91996 1.36774 9.08725H4.69505C4.84036 8.00929 4.98567 6.93119 5.13097 5.85309L5.13654 5.81175C5.28153 4.73607 5.42651 3.66039 5.57149 2.58483H0.599775Z" fill="#758941" />
    <path fill-rule="evenodd" clip-rule="evenodd" d="M4.97425 1.1612C5.14893 0.777161 5.32358 0.39317 5.49808 0.0090332L5.82916 0.159428C5.65459 0.543716 5.47987 0.927846 5.30518 1.31193L5.30516 1.31197C5.13047 1.69606 4.95579 2.08009 4.78127 2.46428L4.4502 2.31388C4.62476 1.92959 4.79948 1.54546 4.97417 1.16138L4.97425 1.1612Z" fill="#758941" />
    <path d="M3.60591 4.24835V4.47715H2.50391V3.00781H3.57652V3.23661H2.77678V3.61864H3.48626V3.84323H2.77678V4.24835H3.60591Z" fill="#758941" />
    <path d="M3.12343 6.46821C2.97509 6.46821 2.84075 6.43603 2.72041 6.37167C2.60146 6.30591 2.50771 6.21567 2.43914 6.10088C2.37197 5.98615 2.33838 5.8567 2.33838 5.71257C2.33838 5.56843 2.37266 5.43899 2.44123 5.32424C2.5098 5.20949 2.60356 5.11993 2.72251 5.05556C2.84285 4.98979 2.97719 4.95691 3.12552 4.95691C3.24587 4.95691 3.35572 4.9779 3.45508 5.01988C3.55443 5.06186 3.63839 5.12273 3.70696 5.2025L3.53064 5.36832C3.42429 5.25357 3.29345 5.1962 3.13812 5.1962C3.03736 5.1962 2.94711 5.21859 2.86734 5.26337C2.78758 5.30675 2.72531 5.36762 2.68052 5.44598C2.63574 5.52435 2.61335 5.61321 2.61335 5.71257C2.61335 5.81193 2.63574 5.90078 2.68052 5.97915C2.72531 6.05752 2.78758 6.11906 2.86734 6.16385C2.94711 6.20724 3.03736 6.22894 3.13812 6.22894C3.29345 6.22894 3.42429 6.17088 3.53064 6.05471L3.70696 6.22264C3.63839 6.30239 3.55373 6.3633 3.45297 6.40524C3.35362 6.44724 3.24377 6.46821 3.12343 6.46821Z" fill="#758941" />
    <path d="M3.06918 8.47715C2.91945 8.47715 2.7844 8.44497 2.66406 8.38061C2.54371 8.31479 2.44926 8.22455 2.38069 8.10982C2.31212 7.99364 2.27783 7.86424 2.27783 7.72146C2.27783 7.57873 2.31212 7.45 2.38069 7.33527C2.44926 7.21909 2.54371 7.12885 2.66406 7.06449C2.7844 6.99873 2.91945 6.96582 3.06918 6.96582C3.21891 6.96582 3.35395 6.99873 3.4743 7.06449C3.59464 7.12885 3.6891 7.21843 3.75767 7.33315C3.82624 7.44788 3.86052 7.57734 3.86052 7.72146C3.86052 7.86564 3.82624 7.99503 3.75767 8.10982C3.6891 8.22455 3.59464 8.31479 3.4743 8.38061C3.35395 8.44497 3.21891 8.47715 3.06918 8.47715ZM3.06918 8.23782C3.16713 8.23782 3.25529 8.21618 3.33366 8.17279C3.41202 8.128 3.47359 8.06643 3.51837 7.98806C3.56316 7.90831 3.58554 7.81946 3.58554 7.72146C3.58554 7.62352 3.56316 7.53534 3.51837 7.45697C3.47359 7.37721 3.41202 7.31564 3.33366 7.27231C3.25529 7.22752 3.16713 7.20509 3.06918 7.20509C2.97122 7.20509 2.88306 7.22752 2.80469 7.27231C2.72633 7.31564 2.66476 7.37721 2.61998 7.45697C2.5752 7.53534 2.55281 7.62352 2.55281 7.72146C2.55281 7.81946 2.5752 7.90831 2.61998 7.98806C2.66476 8.06643 2.72633 8.128 2.80469 8.17279C2.88306 8.21618 2.97122 8.23782 3.06918 8.23782Z" fill="#758941" />
    <path d="M0.525898 11.5453C0.439822 11.5453 0.35647 11.5322 0.275841 11.5061C0.196303 11.4788 0.133652 11.444 0.0878906 11.4015L0.148361 11.274C0.191944 11.3132 0.247512 11.3454 0.315066 11.3704C0.383709 11.3944 0.453986 11.4064 0.525898 11.4064C0.620693 11.4064 0.691511 11.3906 0.738366 11.359C0.785214 11.3263 0.808638 11.2832 0.808638 11.2299C0.808638 11.1906 0.795566 11.1591 0.769414 11.1351C0.74436 11.11 0.71276 11.0909 0.674626 11.0778C0.637578 11.0648 0.584734 11.0501 0.516091 11.0337C0.430016 11.0131 0.360283 10.9923 0.306894 10.9716C0.254595 10.9509 0.209378 10.9194 0.171243 10.8768C0.134197 10.8332 0.115674 10.7749 0.115674 10.702C0.115674 10.6409 0.131473 10.5859 0.163071 10.5369C0.195758 10.4878 0.244789 10.4486 0.310163 10.4192C0.375537 10.3898 0.45671 10.3751 0.553682 10.3751C0.621233 10.3751 0.687699 10.3838 0.753075 10.4012C0.818451 10.4187 0.87456 10.4437 0.921414 10.4765L0.867481 10.6072C0.819535 10.5766 0.768329 10.5538 0.713851 10.5385C0.659372 10.5222 0.605981 10.514 0.553682 10.514C0.461068 10.514 0.391336 10.5309 0.344484 10.5647C0.298723 10.5985 0.275841 10.642 0.275841 10.6954C0.275841 10.7346 0.288916 10.7668 0.315066 10.7918C0.341216 10.8158 0.373358 10.8349 0.411493 10.8491C0.450718 10.8622 0.503562 10.8763 0.570025 10.8915C0.656099 10.9123 0.725287 10.9329 0.77759 10.9537C0.829887 10.9743 0.87456 11.006 0.911608 11.0485C0.949741 11.0909 0.968808 11.1482 0.968808 11.22C0.968808 11.28 0.952463 11.335 0.919778 11.3851C0.887093 11.4342 0.837517 11.4734 0.771051 11.5028C0.70459 11.5311 0.622869 11.5453 0.525898 11.5453ZM1.4188 10.5303H1.02655V10.3882H1.97284V10.5303H1.5806V11.5322H1.4188V10.5303ZM2.91572 11.5322L2.66893 11.1808C2.63842 11.183 2.61445 11.1841 2.59702 11.1841H2.31428V11.5322H2.15084V10.3882H2.59702C2.74521 10.3882 2.86179 10.4236 2.94678 10.4944C3.03176 10.5652 3.07425 10.6628 3.07425 10.7869C3.07425 10.8752 3.05246 10.9504 3.00888 11.0125C2.9653 11.0746 2.90319 11.1198 2.82256 11.1482L3.09387 11.5322H2.91572ZM2.59212 11.0452C2.69563 11.0452 2.77462 11.0228 2.8291 10.9782C2.88358 10.9335 2.91082 10.8698 2.91082 10.7869C2.91082 10.7042 2.88358 10.6409 2.8291 10.5974C2.77462 10.5527 2.69563 10.5303 2.59212 10.5303H2.31428V11.0452H2.59212ZM4.06723 11.2462H3.45925L3.3334 11.5322H3.16506L3.68316 10.3882H3.84496L4.36468 11.5322H4.19307L4.06723 11.2462ZM4.01002 11.1155L3.76324 10.5549L3.51645 11.1155H4.01002ZM6.09108 10.3882L5.70863 11.5322H5.53703L5.22486 10.6186L4.9127 11.5322H4.73782L4.35539 10.3882H4.52373L4.83262 11.3181L5.15459 10.3882H5.30495L5.62038 11.323L5.93581 10.3882H6.09108Z" fill="#758941" />
  </g>
  <defs>
    <clipPath id="clip0_15_8">
      <rect width="6.24242" height="12" fill="white" />
    </clipPath>
  </defs>
</svg>