<svg width="475" height="341" viewBox="0 0 475 341" fill="none" xmlns="http://www.w3.org/2000/svg">
<path d="M439.341 340.89C467.205 340.89 483.99 312.368 467.644 292.073C467.315 291.634 466.986 291.196 466.547 290.757C456.564 279.457 441.316 275.399 427.932 269.036C424.202 267.281 420.472 265.196 417.839 261.905C414.219 257.298 413.342 250.935 414.11 245.011C417.181 220.328 444.058 205.189 448.446 180.726C451.737 162.186 440.438 143.427 425.08 133.664C409.722 123.901 391.182 121.377 373.301 120.609C355.31 119.842 337.209 120.5 319.766 116.112C315.159 114.905 310.442 113.259 307.26 109.53C303.75 105.361 302.982 99.2177 303.53 93.6229C305.066 78.5937 339.403 26.7049 322.18 9.5914C315.378 2.8996 306.273 -0.830257 296.948 0.157058C287.733 1.03467 279.067 5.31303 270.949 10.1399C253.835 20.2325 194.158 87.0408 172.766 97.1333C151.703 107.006 127.459 104.154 104.312 103.606C81.165 103.167 55.4949 106.568 40.356 124.888C34.9806 131.36 31.3605 140.136 33.1157 148.474C34.2127 153.739 37.3941 158.237 40.9045 162.077C49.0225 170.853 59.5538 176.886 67.2329 186.101C74.912 195.316 78.971 209.907 71.7307 219.56C68.8785 223.29 64.8195 225.704 60.8702 227.898C38.6008 240.513 13.5888 253.349 3.82537 277.812C-1.1112 290.318 -1.00151 304.14 2.61865 317.085C6.56791 330.798 20.2806 340.452 36.0777 340.452H439.341V340.89Z" fill="#DDECFF"/>
<path opacity="0.41" d="M466.547 290.757C456.564 279.457 441.316 275.399 427.932 269.036C424.202 267.281 420.472 265.196 417.839 261.905C414.219 257.298 413.342 250.935 414.11 245.011C417.181 220.328 444.058 205.189 448.446 180.726C451.737 162.186 440.438 143.427 425.08 133.664C409.722 123.901 391.182 121.377 373.301 120.609C355.31 119.842 337.209 120.5 319.766 116.112C315.159 114.905 310.442 113.259 307.26 109.53C303.75 105.361 302.982 99.2177 303.53 93.6229C305.066 78.5937 339.403 26.7049 322.18 9.5914C316.256 3.77722 308.577 0.266767 300.678 0.0473633C311.539 3.00931 319.437 9.2623 313.733 21.9877C300.239 51.6071 176.276 149.351 263.379 159.005C350.483 168.659 206.225 246.108 271.936 251.484C322.07 255.543 219.17 314.343 167.829 340.89H439.341C467.205 340.89 483.99 312.368 467.644 292.073C467.315 291.634 466.876 291.196 466.547 290.757Z" fill="#F5F8FE"/>
<path d="M71.4019 81.6653C71.4019 81.6653 161.686 112.711 201.837 40.0884C241.988 -32.5341 -4.29226 54.6787 71.4019 81.6653Z" fill="#DDECFF"/>
<path opacity="0.41" d="M182.311 11.7849C188.673 16.0633 189.99 23.7424 183.298 35.8096C154.885 87.15 101.46 86.7112 72.4992 81.994C83.0306 85.285 164.32 107.884 201.728 40.0879C212.917 20.0125 202.167 12.114 182.311 11.7849Z" fill="#C8E4FF"/>
<path d="M41.7811 307.433C41.7811 307.433 38.4901 304.361 40.6841 292.733C42.8781 281.104 48.4729 269.805 45.7304 257.189C42.9878 244.574 21.3766 212.541 21.3766 210.456C21.2669 208.372 14.6848 247.645 25.8744 263.113C37.0639 278.581 38.3804 283.956 37.8319 292.074C37.2834 300.192 37.9416 306.774 39.1483 308.639L41.7811 307.433Z" fill="#58780E"/>
<path d="M39.6964 283.844C38.3799 289 37.612 302.165 39.6964 305.236C39.9158 305.565 40.1352 305.346 40.4643 304.797C39.8061 302.603 39.3673 298.874 40.574 292.511C42.768 280.882 48.3628 269.583 45.6202 256.968C42.8777 244.352 21.2665 212.319 21.2665 210.235C21.2665 210.235 24.5575 236.892 35.418 255.103C43.3165 268.376 41.0128 278.688 39.6964 283.844Z" fill="#4F6F00"/>
<path d="M45.6217 306.556C45.6217 306.556 39.259 290.759 50.0098 277.046C60.7605 263.333 77.9837 245.781 78.3128 238.76C78.3128 238.76 82.7008 271.89 68.7687 281.215C54.8366 290.539 44.9635 292.075 47.3769 306.446L45.6217 306.556Z" fill="#58780E"/>
<path d="M60.7603 274.521C45.1826 285.82 43.8662 298.984 46.2796 305.018C46.499 305.457 46.8281 305.786 47.2669 305.895C45.1826 291.963 54.9461 290.427 68.6588 281.103C82.5909 271.778 78.2028 238.648 78.2028 238.648C78.2028 238.648 76.3379 263.221 60.7603 274.521Z" fill="#4F6F00"/>
<path d="M35.1996 306.882C35.1996 306.882 37.284 298.545 36.187 289.439C35.0899 280.444 25.6556 275.288 16.7698 265.744C12.272 260.807 10.8459 234.808 13.6981 232.395C13.6981 232.395 -1.87952 251.263 0.533912 265.086C2.94735 278.908 28.3981 287.904 30.7019 294.595C33.0056 301.287 32.8959 306.882 32.8959 306.882H35.1996Z" fill="#58780E"/>
<path d="M8.43292 239.856C3.27694 253.788 8.54262 270.682 25.6561 281.213C38.2718 288.893 34.2128 305.019 34.2128 305.019L36.2971 298.656C36.5165 295.914 36.5165 292.732 36.0777 289.441C34.9807 280.446 25.5464 275.29 16.6605 265.746C12.2725 261.028 10.8464 236.675 13.2598 232.725C12.7113 233.713 10.7367 236.345 8.43292 239.856Z" fill="#4F6F00"/>
<path d="M13.4786 232.833C13.6971 232.615 13.8064 232.505 13.8064 232.505C13.6971 232.505 13.5879 232.615 13.4786 232.833Z" fill="#49B4D6"/>
<path d="M48.9125 305.895C48.9125 305.895 52.5326 292.292 61.6379 290.537C70.6334 288.672 81.0551 275.398 81.6036 272.765C81.6036 272.655 80.0677 297.887 48.9125 305.895Z" fill="#58780E"/>
<path d="M61.0891 294.924C55.604 297.666 53.3003 301.396 52.4226 304.797C80.1772 295.911 81.6033 272.654 81.6033 272.654C81.4936 273.203 80.9451 274.08 80.1772 275.287C77.4346 280.114 70.8525 290.097 61.0891 294.924Z" fill="#4F6F00"/>
<path d="M68.4387 300.849H21.267L26.8618 336.173C27.3006 338.805 29.6044 340.78 32.3469 340.78H57.4686C60.2111 340.78 62.5149 338.805 62.9537 336.173L68.4387 300.849Z" fill="#D3831A"/>
<path d="M67.5611 306.773L68.4387 300.849H21.267L22.1446 306.773H67.5611Z" fill="#E78C14"/>
<path d="M57.0306 300.849L51.4358 336.173C50.997 338.805 48.6932 340.78 45.9507 340.78H57.3597C60.1022 340.78 62.4059 338.805 62.8447 336.173L68.4395 300.849H57.0306Z" fill="#E78C14"/>
<path d="M254.603 260.479H244.73V341H254.603V260.479Z" fill="white"/>
<path d="M254.603 260.479H250.763V341H254.603V260.479Z" fill="#E8F2FC"/>
<path d="M277.97 334.308H224.216C222.351 334.308 220.925 335.734 220.925 337.599C220.925 339.464 222.351 340.89 224.216 340.89H277.97C279.835 340.89 281.261 339.464 281.261 337.599C281.261 335.843 279.835 334.308 277.97 334.308Z" fill="white"/>
<path d="M277.97 334.308H224.216C223.009 334.308 222.022 334.966 221.364 335.953H267.987C269.852 335.953 271.278 337.379 271.278 339.244C271.278 339.902 271.059 340.451 270.839 340.89H278.08C279.945 340.89 281.371 339.464 281.371 337.599C281.261 335.843 279.835 334.308 277.97 334.308Z" fill="#E8F2FC"/>
<path d="M254.603 260.479H244.73V267.61H254.603V260.479Z" fill="#E8F2FC"/>
<path d="M305.616 148.254C304.19 147.595 302.654 147.266 301.009 147.266H245.609C240.234 147.266 235.517 151.106 234.529 156.481L217.197 247.205C216.867 248.631 216.977 250.167 217.197 251.483V251.593H201.838C199.315 251.593 197.231 253.677 197.231 256.2C197.231 258.723 199.315 260.808 201.838 260.808H251.643V260.698H283.676C289.051 260.698 293.768 256.858 294.756 251.483L312.089 160.76C313.186 155.275 310.224 150.228 305.616 148.254Z" fill="#FF9933"/>
<path d="M312.086 160.65L294.754 251.374C293.766 256.639 289.049 260.479 283.674 260.479H251.531V260.589H201.727C199.203 260.589 197.119 258.504 197.119 255.981C197.119 253.458 199.203 251.374 201.727 251.374H217.085V251.264C217.195 251.264 217.414 251.264 217.524 251.264H272.923C280.383 251.264 286.745 245.998 288.172 238.648L305.504 148.035C310.222 150.229 313.183 155.275 312.086 160.65Z" fill="#E8F2FC"/>
<path d="M288.391 238.32L288.281 238.868C286.855 246.218 280.493 251.484 273.033 251.484H217.634C217.524 251.484 217.304 251.484 217.195 251.484V251.593H201.836C199.533 251.593 197.668 253.239 197.339 255.433V243.037V242.927C197.01 240.514 199.094 238.32 201.507 238.32H288.391Z" fill="white"/>
<path d="M305.614 148.254L288.281 238.867C286.855 246.217 280.492 251.483 273.032 251.483H217.633C217.523 251.483 217.304 251.483 217.194 251.483C216.975 250.167 216.865 248.631 217.194 247.205L234.527 156.482C235.514 151.216 240.232 147.267 245.607 147.267H301.006C302.652 147.267 304.188 147.596 305.614 148.254Z" fill="white"/>
<path d="M174.302 126.424H79.9587C77.7647 126.424 76.1191 128.398 76.4483 130.592L84.5662 185.992C84.7856 187.747 86.3214 189.063 88.0766 189.063H182.42C184.614 189.063 186.26 187.089 185.931 184.895L177.813 129.495C177.593 127.74 176.057 126.424 174.302 126.424Z" fill="#4F6F00"/>
<path d="M161.138 126.424H80.0682C77.8742 126.424 76.2287 128.398 76.5578 130.592L80.1779 155.056C88.8444 158.895 98.7175 160.98 109.139 160.98C136.126 161.089 152.033 146.718 161.138 126.424Z" fill="#457D07"/>
<path d="M131.518 168.769H119.451H113.637C112.101 168.769 110.894 170.085 111.114 171.621L116.489 208.81C116.489 208.92 116.489 209.03 116.489 209.139L116.709 210.565C116.928 211.772 117.915 212.759 119.232 212.759H125.046H136.894L131.518 168.769Z" fill="#58780E"/>
<path d="M157.627 210.236C157.627 208.81 156.42 207.713 155.104 207.713H141.61C139.636 207.713 137.881 206.287 137.661 204.312L133.712 175.351H136.016C137.551 175.351 138.758 174.035 138.539 172.499L138.319 171.073C138.1 169.866 137.113 168.879 135.796 168.879H131.079C128.995 168.879 127.24 170.744 127.569 172.828L132.505 209.578C132.725 211.443 134.37 212.759 136.125 212.759H154.994C156.53 212.759 157.627 211.662 157.627 210.236Z" fill="#4F6F00"/>
<path d="M147.863 181.055C147.863 182.043 147.095 182.701 146.218 182.701C145.231 182.701 144.572 181.933 144.572 181.055C144.572 180.068 145.34 179.41 146.218 179.41C147.095 179.41 147.863 180.178 147.863 181.055Z" fill="#58780E"/>
<path d="M156.639 181.055C156.639 182.043 155.871 182.701 154.994 182.701C154.007 182.701 153.348 181.933 153.348 181.055C153.348 180.068 154.116 179.41 154.994 179.41C155.871 179.41 156.639 180.178 156.639 181.055Z" fill="#58780E"/>
<path d="M162.454 182.701C163.363 182.701 164.1 181.964 164.1 181.055C164.1 180.147 163.363 179.41 162.454 179.41C161.545 179.41 160.809 180.147 160.809 181.055C160.809 181.964 161.545 182.701 162.454 182.701Z" fill="#58780E"/>
<path d="M172.437 152.203L177.374 186.101C177.593 187.856 179.129 189.173 180.884 189.173H182.311C184.505 189.173 186.15 187.198 185.821 185.004L177.703 129.605C177.484 127.849 175.948 126.533 174.193 126.533H172.766C170.572 126.533 168.927 128.508 169.256 130.702L172.437 152.203Z" fill="#58780E"/>
<path d="M136.784 132.566H103.873C103.105 132.566 102.447 133.334 102.557 134.102L102.776 135.419C102.886 136.077 103.434 136.516 104.093 136.516H137.003C137.771 136.516 138.429 135.748 138.32 134.98L138.1 133.663C137.99 133.005 137.442 132.566 136.784 132.566Z" fill="#58780E"/>
<path d="M270.51 149.461C269.413 141.453 257.675 145.182 262.173 137.723C266.232 130.811 261.515 127.74 255.92 126.643C248.79 125.217 252.849 122.474 249.338 115.782C244.95 107.335 238.039 109.858 238.039 109.858C238.039 109.858 229.482 105.251 220.706 112.601C211.491 120.39 213.466 127.191 218.402 136.626C220.925 141.343 217.854 145.621 215.66 154.397C213.027 164.929 225.972 185.991 253.726 171.73C264.477 166.135 271.059 153.629 270.51 149.461Z" fill="#314403"/>
<path d="M232.225 151.654C232.225 151.654 227.947 152.093 223.668 156.371C220.816 159.223 206.555 187.526 206.555 187.526L193.5 147.485L183.956 148.253C183.956 148.253 194.707 212.758 203.154 212.868C211.052 212.977 236.284 171.291 236.284 171.291L232.225 151.654Z" fill="#E78C14"/>
<path d="M259.211 168.548L267.548 199.923L217.963 203.982L218.182 212.977C218.182 212.977 275.337 213.197 286.197 213.087C293.328 212.977 279.835 156.152 271.278 149.679C264.477 144.523 245.608 145.949 245.608 145.949L232.224 151.654C232.224 151.654 216.647 167.122 225.971 181.602C233.321 193.011 223.997 215.281 223.997 215.281L255.7 217.146L284.003 217.365L259.211 168.548Z" fill="#E78C14"/>
<path d="M227.617 203.215L229.372 202.886C231.127 195.426 231.347 185.333 227.507 180.397C219.828 170.743 227.727 156.701 232.224 151.655C231.566 152.423 216.866 167.342 225.971 181.604C230.25 188.295 229.153 197.181 227.617 203.215Z" fill="#8B550D"/>
<path d="M218.183 206.067C212.917 206.286 207.322 208.151 204.689 211.223C204.141 211.881 204.58 212.978 205.457 212.978H218.183V206.067Z" fill="#FFB19E"/>
<path d="M245.607 135.418V146.059L236.063 156.92L235.954 156.81L233.321 151.325V145.401C228.604 144.743 224.435 141.123 223.338 135.967L222.022 128.617C222.022 128.617 229.152 127.849 234.747 122.145C234.747 122.145 236.393 125.216 238.916 127.63C240.671 129.385 243.084 129.824 244.072 130.811C245.278 131.908 245.717 133.663 245.607 135.418Z" fill="#FFB19E"/>
<path d="M243.084 126.204C243.084 126.204 242.755 121.706 241 117.976C239.025 113.588 236.283 108.432 230.688 108.432C230.688 108.432 244.51 106.238 246.814 125.436L243.084 126.204Z" fill="#E78C14"/>
<path d="M251.312 129.385C250.873 125.655 247.802 123.022 244.401 123.351C241 123.68 238.587 126.971 238.916 130.701C239.355 134.431 242.426 137.064 245.827 136.735C249.228 136.296 251.641 133.005 251.312 129.385Z" fill="#E78C14"/>
<path d="M247.033 136.078C243.742 136.407 240.78 133.884 240.342 130.264C240.012 126.972 241.987 124.011 244.839 123.352C244.62 123.352 244.51 123.352 244.291 123.352C240.89 123.681 238.477 126.972 238.806 130.702C239.245 134.432 242.316 137.065 245.717 136.736C246.814 136.626 247.692 136.187 248.569 135.639C248.13 135.858 247.582 135.968 247.033 136.078Z" fill="#A4620C"/>
<path d="M248.898 129.494C248.679 127.739 247.253 126.423 245.607 126.532C243.962 126.752 242.755 128.287 242.974 130.043C243.194 131.798 244.62 133.114 246.265 133.005C247.911 132.895 249.118 131.249 248.898 129.494Z" fill="#A4620C"/>
<path d="M242.426 140.794C241.987 141.343 239.793 144.085 237.928 145.621C237.16 146.279 236.831 147.157 236.831 148.035L235.953 156.701L233.321 151.216V145.292L233.43 145.182C233.54 145.182 239.574 144.305 242.426 140.794Z" fill="#F48F7A"/>
<path d="M238.476 140.245L238.366 139.587C241.877 139.039 244.4 134.322 244.4 134.322L244.948 134.651C244.729 134.87 242.206 139.697 238.476 140.245Z" fill="#E78C14"/>
<path d="M239.025 139.916C238.915 139.368 238.038 139.039 237.05 139.258C236.063 139.477 235.295 140.026 235.405 140.574C235.515 141.123 236.392 141.452 237.38 141.233C238.477 141.123 239.135 140.465 239.025 139.916Z" fill="#E78C14"/>
<path d="M192.732 147.705C192.732 147.705 194.048 136.625 192.842 136.187C191.635 135.748 190.428 140.465 190.428 140.465C190.428 140.465 185.272 130.482 181.762 131.579C178.251 132.676 184.724 148.034 184.724 148.034L192.732 147.705Z" fill="#FFB19E"/>
<path d="M227.617 203.104L266.67 199.813C267.987 199.704 268.974 198.497 268.645 197.181C267.219 189.831 263.05 168.987 262.831 169.536C262.502 170.304 266.78 194.219 261.734 196.632C258.333 198.278 227.617 203.104 227.617 203.104Z" fill="#8B550D"/>
<path d="M254.164 318.73C253.835 318.84 253.615 318.95 253.396 319.279C250.873 322.789 248.679 323.557 244.291 324.106C244.071 324.106 243.742 324.215 243.523 324.325C243.852 323.776 245.278 321.473 244.291 319.279C243.194 316.865 241.768 315.11 241.768 315.11L248.13 311.271C248.24 311.38 252.08 315.878 254.164 318.73Z" fill="#FFB19E"/>
<path d="M258.882 326.848C257.785 327.945 239.574 337.818 235.296 340.341C234.747 340.67 233.65 341.219 233.541 340.67C233.211 339.793 241.11 324.544 244.401 324.105C248.789 323.557 250.983 322.679 253.397 319.279C253.945 318.511 255.042 318.511 255.481 319.279C257.236 321.911 259.759 325.97 258.882 326.848Z" fill="#1E2A02"/>
<path d="M224.106 215.172C224.106 215.172 180.006 235.576 178.8 249.837C177.812 262.453 242.756 320.156 242.756 320.156L253.068 315.878L217.524 258.504C217.524 258.504 255.262 239.964 264.477 217.585L224.106 215.172Z" fill="#445F03"/>
<path d="M196.023 246.107C193.061 251.921 190.867 259.93 189.331 267.17C194.378 273.094 200.631 279.786 207.103 286.368C202.276 267.389 197.998 248.301 199.534 245.559C202.386 240.403 221.035 226.471 234.309 219.669C234.199 219.559 202.934 232.724 196.023 246.107Z" fill="#304402"/>
<path d="M228.164 330.578C227.835 330.468 227.616 330.468 227.287 330.687C223.447 332.442 221.143 332.113 216.975 330.468C216.755 330.358 216.426 330.358 216.097 330.358C216.646 330.029 219.059 328.713 219.279 326.409C219.498 323.776 219.169 321.582 219.169 321.582L226.629 321.363C226.519 321.253 227.726 327.067 228.164 330.578Z" fill="#FFB19E"/>
<path d="M228.274 340.451C226.738 340.89 205.347 340.56 200.3 340.67C199.642 340.67 199.203 340.122 199.313 339.573C199.532 338.586 213.794 329.261 216.865 330.468C220.924 332.113 223.228 332.443 227.177 330.687C227.945 330.358 228.933 330.797 229.042 331.784C229.262 334.856 229.481 340.122 228.274 340.451Z" fill="#1E2A02"/>
<path d="M283.784 217.256C283.784 217.256 287.514 242.268 265.135 248.521C247.473 253.458 228.494 256.091 228.494 256.091L229.811 327.068H218.073C218.073 327.068 196.462 251.264 199.533 245.559C203.044 239.197 230.469 219.67 242.317 216.159L283.784 217.256Z" fill="#445F03"/>
<path opacity="0.13" d="M228.494 256.09C228.494 256.09 247.473 253.567 265.135 248.521C287.514 242.158 283.784 217.256 283.784 217.256L269.961 216.927C265.793 225.923 252.3 248.082 219.389 250.496L226.849 327.067H229.92L228.494 256.09Z" fill="black"/>
<path d="M82.7008 340.889H77.7642L98.2784 217.694L103.215 217.584L82.7008 340.889Z" fill="white"/>
<path d="M285.869 340.889H291.025L265.684 216.268H260.418L285.869 340.889Z" fill="white"/>
<path d="M101.899 224.386L103.215 217.584L98.2785 217.694L96.962 224.386H101.899Z" fill="#E4EDF7"/>
<path d="M267.329 224.386L265.684 216.268H260.418L262.063 224.386H267.329Z" fill="#E4EDF7"/>
<path d="M295.522 212.869H73.2668C71.8407 212.869 70.7437 213.966 70.7437 215.392C70.7437 216.818 71.8407 217.915 73.2668 217.915H295.632C297.058 217.915 298.155 216.818 298.155 215.392C298.046 213.966 296.948 212.869 295.522 212.869Z" fill="white"/>
<path d="M207.65 103.606L201.836 69.7079C201.617 68.1721 200.3 66.9653 198.655 66.9653L144.133 67.5138C142.159 67.5138 140.732 69.2691 140.952 71.134L146.108 100.863L148.741 117.757C148.85 118.635 150.057 118.854 150.496 118.196L157.407 107.774L204.469 107.226C206.444 107.336 207.98 105.58 207.65 103.606Z" fill="#50752A"/>
<path d="M188.343 77.4973H156.749C156.201 77.4973 155.762 77.9361 155.872 78.4846L155.981 79.3622C156.091 79.801 156.42 80.1301 156.859 80.1301H188.453C189.001 80.1301 189.44 79.6913 189.331 79.1428L189.221 78.2652C189.111 77.8264 188.782 77.4973 188.343 77.4973Z" fill="white"/>
<path d="M189.33 85.9446H157.736C157.187 85.9446 156.748 86.3834 156.858 86.9319L156.968 87.8095C157.078 88.2483 157.407 88.5774 157.845 88.5774H189.44C189.988 88.5774 190.427 88.1386 190.317 87.5901L190.207 86.7125C190.207 86.164 189.769 85.9446 189.33 85.9446Z" fill="white"/>
<path d="M181.871 94.9399H167.28C166.732 94.9399 166.293 95.3788 166.403 95.9273L166.512 96.8049C166.622 97.2437 166.951 97.5728 167.39 97.5728H181.98C182.529 97.5728 182.968 97.134 182.858 96.5855L182.748 95.7079C182.639 95.2691 182.31 94.9399 181.871 94.9399Z" fill="white"/>
<path d="M429.139 49.8513L436.379 17.9282C436.708 16.502 435.94 15.405 434.404 15.405L382.954 15.9535C381.089 15.9535 379.115 17.5991 378.566 19.3543L372.203 47.3282L368.254 63.2349C368.035 64.1126 369.022 64.332 369.79 63.5641L380.212 53.6909L424.641 53.2521C426.615 53.3618 428.7 51.7163 429.139 49.8513Z" fill="#50752A"/>
<path d="M419.924 25.717H391.621C391.182 25.717 390.633 26.1558 390.524 26.5946L390.304 27.4723C390.195 27.8014 390.414 28.1305 390.853 28.1305H419.156C419.595 28.1305 420.143 27.6917 420.253 27.2529L420.472 26.3752C420.582 26.0461 420.363 25.717 419.924 25.717Z" fill="white"/>
<path d="M417.839 33.2866H389.536C389.097 33.2866 388.548 33.7254 388.439 34.1642L388.219 35.0419C388.11 35.371 388.329 35.7001 388.768 35.7001H417.071C417.51 35.7001 418.058 35.2613 418.168 34.8224L418.387 33.9448C418.497 33.506 418.278 33.2866 417.839 33.2866Z" fill="white"/>
<path d="M407.856 41.4045H394.801C394.362 41.4045 393.814 41.8434 393.704 42.2822L393.485 43.1598C393.375 43.4889 393.595 43.818 394.033 43.818H407.088C407.527 43.818 408.075 43.3792 408.185 42.9404L408.404 42.0627C408.514 41.7336 408.295 41.4045 407.856 41.4045Z" fill="white"/>
<path d="M135.796 103.386C136.455 103.934 137.552 103.386 137.442 102.508L130.421 62.2478C130.202 60.9314 129.105 59.9441 127.788 59.9441L81.4941 60.4926C79.8486 60.4926 78.5322 61.9187 78.8613 63.5643L83.7979 92.3061C84.0173 93.6225 85.1143 94.6098 86.4307 94.6098L122.084 94.171C123.729 94.171 125.375 94.7195 126.691 95.8165L135.796 103.386Z" fill="#D3831A"/>
<path d="M121.425 71.9006H89.8311C89.2826 71.9006 88.8437 72.3395 88.9534 72.888L89.0631 73.7656C89.1728 74.2044 89.502 74.5335 89.9408 74.5335H121.535C122.083 74.5335 122.522 74.0947 122.412 73.5462L122.303 72.6686C122.193 72.2298 121.864 71.9006 121.425 71.9006Z" fill="white"/>
<path d="M122.413 80.3481H90.8185C90.27 80.3481 89.8312 80.7869 89.9409 81.3355L90.0506 82.2131C90.1603 82.6519 90.4894 82.981 90.9283 82.981H122.522C123.071 82.981 123.51 82.5422 123.4 81.9937L123.29 81.1161C123.29 80.6772 122.851 80.3481 122.413 80.3481Z" fill="white"/>
<path d="M379.663 170.742L379.443 177.104L375.604 324.324H360.355L346.862 198.167L329.749 240.731L341.487 324.324H335.892L326.567 324.434C326.567 324.434 298.703 240.951 299.252 235.575C299.8 230.2 320.753 171.18 320.753 171.18L379.663 170.742Z" fill="#445F03"/>
<path d="M381.09 79.5795L352.567 75.6302L351.909 75.5205H338.196L338.086 75.6302L321.741 79.6892V171.509H381.09V79.5795Z" fill="#E78C14"/>
<path d="M430.017 97.3514C430.017 97.3514 432.102 84.4066 433.637 84.2969C435.173 84.1872 434.954 90.0014 434.954 90.0014C434.954 90.0014 444.059 80.3477 447.679 82.7611C451.299 85.1746 439.013 100.423 439.013 100.423L430.017 97.3514Z" fill="#FFB19E"/>
<path d="M338.197 75.6305L339.732 176.995H318.34L316.805 149.24L288.392 148.801C285.43 148.911 283.236 146.059 284.114 143.207L298.265 94.0603C299.911 88.3559 304.518 83.8581 310.332 82.432L338.087 75.5208L338.197 75.6305Z" fill="#689500"/>
<path d="M439.889 100.862L412.354 157.358C410.599 160.54 406.101 160.649 404.236 157.468L382.735 121.815L381.638 176.995H358.82L352.457 75.6306H352.567L381.638 79.5799C387.123 80.4575 391.84 83.8582 394.253 88.9045L408.954 119.182C409.283 119.95 410.38 120.06 410.818 119.402L429.468 97.0224L439.889 100.862Z" fill="#689500"/>
<path d="M316.695 149.569H344.669L344.888 135.308L317.024 134.869L316.695 149.569Z" fill="#58780E"/>
<path d="M344.779 145.62C352.678 145.291 361.015 142.548 364.964 137.941C365.842 136.953 365.074 135.308 363.758 135.308H344.67L344.779 145.62Z" fill="#FFB19E"/>
<path opacity="0.41" d="M333.918 150.118V149.679L316.915 149.569L318.341 176.995L323.497 154.286L333.918 150.118Z" fill="#445F03"/>
<path opacity="0.32" d="M379.444 176.995L375.715 324.324H374.618L364.415 176.995H379.444Z" fill="#070A00"/>
<path opacity="0.41" d="M344.889 135.199C344.889 135.199 307.042 137.941 307.371 137.173L313.953 114.575L314.063 114.904L314.721 130.701C314.721 132.895 342.914 134.65 344.889 135.199Z" fill="#445F03"/>
<path opacity="0.41" d="M412.356 157.358L439.891 100.862H439.781C436.819 100.862 411.259 154.396 408.626 155.712C405.554 157.248 382.846 121.924 382.846 121.924L404.347 157.577C406.103 160.539 410.6 160.43 412.356 157.358Z" fill="#445F03"/>
<path d="M328.323 324.324C325.032 331.016 309.454 334.417 309.454 334.417C309.454 334.417 308.357 336.391 310.112 338.915C311.868 341.438 328.323 339.902 330.407 339.463C332.491 339.024 333.918 337.379 333.918 337.379C333.918 337.379 335.344 338.915 336.112 339.244C336.88 339.573 341.048 338.805 341.048 338.805C342.036 336.172 341.048 325.97 340.719 324.324H328.323Z" fill="#1E2B02"/>
<path d="M374.288 324.324C377.579 331.016 393.157 334.417 393.157 334.417C393.157 334.417 394.254 336.391 392.499 338.915C390.744 341.438 374.288 339.902 372.204 339.463C370.12 339.024 368.694 337.379 368.694 337.379C368.694 337.379 367.268 338.915 366.5 339.244C365.732 339.573 361.563 338.805 361.563 338.805C360.576 336.172 361.563 325.97 361.892 324.324H374.288Z" fill="#1E2B02"/>
<path opacity="0.32" d="M329.859 240.731L341.597 324.324H336.002C332.492 306.333 320.425 246.106 320.864 242.377C321.412 237.879 346.314 199.483 347.082 198.167L329.859 240.731Z" fill="#080C00"/>
<path fill-rule="evenodd" clip-rule="evenodd" d="M352.458 75.74C350.373 77.3856 345.327 80.896 345.327 80.896C345.327 80.896 340.281 77.3856 338.087 75.74V63.6729H352.348V75.74H352.458Z" fill="#FFB19E"/>
<path fill-rule="evenodd" clip-rule="evenodd" d="M352.457 63.5627V68.609C348.289 72.0098 342.365 72.0098 338.196 68.7187V63.5627H352.457Z" fill="#FFB19E"/>
<path fill-rule="evenodd" clip-rule="evenodd" d="M329.42 55.7747H361.563L362.111 46.7792C369.242 43.8172 363.866 26.8135 363.866 26.8135C364.305 30.8724 353.225 31.0918 348.837 30.3239C344.449 29.6657 341.487 31.4209 341.487 31.4209C341.487 31.4209 327.555 28.459 328.323 47.9859C328.433 51.0576 328.872 53.471 329.42 55.7747Z" fill="#314403"/>
<path fill-rule="evenodd" clip-rule="evenodd" d="M358.162 46.779V54.7872C358.162 58.1879 356.736 61.479 354.213 63.8924C353.774 64.2215 353.445 64.6603 353.006 64.9894C348.727 69.0484 341.926 69.0484 337.538 64.9894L336.331 63.8924C333.808 61.5887 332.382 58.2976 332.382 54.7872V48.6439C332.382 48.6439 336.112 46.1207 341.268 40.0872C341.268 40.1969 346.972 45.5722 358.162 46.779Z" fill="#FFB19E"/>
<path fill-rule="evenodd" clip-rule="evenodd" d="M352.458 65.6479V68.7196C348.289 72.1204 342.365 72.1204 338.197 68.8293V65.7577C342.365 69.0487 348.289 69.0487 352.458 65.6479Z" fill="#F48F7A"/>
<path fill-rule="evenodd" clip-rule="evenodd" d="M335.564 56.7626C338.087 52.8133 333.809 48.5349 329.86 51.0581C329.53 51.2775 329.311 51.4969 329.092 51.826C326.568 55.7753 330.847 60.0536 334.796 57.5305C335.125 57.3111 335.454 57.0917 335.564 56.7626Z" fill="#FFB19E"/>
<path fill-rule="evenodd" clip-rule="evenodd" d="M361.234 56.7618C363.648 52.8126 359.698 48.7536 355.859 50.8379C355.31 51.1671 354.872 51.6059 354.652 52.0447C352.568 55.9939 356.627 59.9432 360.576 57.42C360.795 57.3103 361.125 57.091 361.234 56.7618Z" fill="#FFB19E"/>
<path d="M361.124 48.2058H359.917V44.0371C359.917 37.0162 353.554 31.3117 345.656 31.3117H345.107C337.209 31.3117 330.846 37.0162 330.846 44.0371V48.3154H329.639V44.0371C329.639 36.358 336.55 30.105 345.107 30.105H345.656C354.212 30.105 361.124 36.358 361.124 44.0371V48.2058Z" fill="#B06F19"/>
<path d="M360.136 46.0125C358.271 46.0125 356.736 47.5483 356.736 49.4132V55.5565C356.736 57.4214 358.271 58.9573 360.136 58.9573C362.001 58.9573 363.537 57.4214 363.537 55.5565V49.4132C363.537 47.5483 362.001 46.0125 360.136 46.0125Z" fill="#E78C14"/>
<path d="M360.137 46.0122C359.808 46.0122 359.479 46.1219 359.15 46.2316C360.576 46.6704 361.563 47.9868 361.563 49.5227V55.666C361.563 57.2018 360.576 58.5182 359.15 58.957C359.479 59.0667 359.808 59.1764 360.137 59.1764C362.002 59.1764 363.538 57.6406 363.538 55.7756V49.6324C363.538 47.548 362.002 46.0122 360.137 46.0122Z" fill="#B97216"/>
<path d="M330.517 46.0127C328.652 46.0127 327.116 47.5485 327.116 49.4134V55.5567C327.116 57.4217 328.652 58.9575 330.517 58.9575C332.382 58.9575 333.918 57.4217 333.918 55.5567V49.4134C334.027 47.5485 332.491 46.0127 330.517 46.0127Z" fill="#E78C14"/>
<path d="M330.518 46.012C330.188 46.012 329.859 46.1217 329.53 46.2314C330.956 46.6702 331.944 47.9866 331.944 49.5224V55.6657C331.944 57.2015 330.956 58.518 329.53 58.9568C329.859 59.0665 330.188 59.1762 330.518 59.1762C332.382 59.1762 333.918 57.6403 333.918 55.7754V49.6321C334.028 47.5478 332.492 46.012 330.518 46.012Z" fill="#B97216"/>
<path d="M350.812 62.7956V62.1374C354.761 61.918 358.162 56.9814 358.162 56.9814L358.711 57.4202C358.601 57.5299 355.09 62.5762 350.812 62.7956Z" fill="#E78C14"/>
<path d="M351.58 62.5761C351.58 61.9179 350.592 61.4791 349.495 61.5888C348.398 61.6985 347.521 62.247 347.521 62.9052C347.521 63.5634 348.508 64.0023 349.605 63.8926C350.702 63.7829 351.58 63.2343 351.58 62.5761Z" fill="#E78C14"/>
<path d="M367.927 93.4023H318.012C315.27 93.4023 313.185 95.7061 313.295 98.5583L314.612 130.701C314.721 133.334 316.915 135.418 319.438 135.418H366.5C369.024 135.418 371.218 133.334 371.327 130.701L372.644 98.5583C372.753 95.7061 370.669 93.4023 367.927 93.4023Z" fill="#3F540B"/>
<path d="M367.927 93.4021H318.012C316.696 93.4021 315.379 93.9506 314.612 94.9379C315.05 94.8282 315.489 94.7185 315.928 94.7185H365.842C368.585 94.7185 370.669 97.0222 370.559 99.8745L369.243 132.017C369.243 133.224 368.694 134.321 367.927 135.089C369.901 134.54 371.327 132.785 371.437 130.591L372.753 98.4484C372.753 95.7058 370.669 93.4021 367.927 93.4021Z" fill="#4F6F00"/>
<path d="M348.29 115.233C348.29 112.161 345.766 109.529 342.585 109.529C339.513 109.529 336.881 112.052 336.881 115.233C336.881 118.305 339.404 120.938 342.585 120.938C345.766 120.828 348.29 118.305 348.29 115.233Z" fill="#58780E"/>
</svg>
