<svg width="35" height="43" viewBox="0 0 35 43" fill="none" xmlns="http://www.w3.org/2000/svg">
<path d="M25.325 14.86C24.1273 14.8598 22.9415 15.0939 21.8354 15.549C20.7294 16.0041 19.725 16.6712 18.8798 17.512C18.7017 17.2519 18.5095 17.0104 18.3127 16.7596C18.0051 16.3749 17.816 15.9106 17.7677 15.4222C17.7195 14.9338 17.8143 14.4419 18.0408 14.0055C19.1993 11.8476 19.4681 9.32872 18.7908 6.9785C18.2891 5.23891 17.2514 3.69809 15.8227 2.57144C14.394 1.44479 12.6458 0.788613 10.8223 0.694636C9.64642 0.634293 8.47058 0.813796 7.36759 1.22203C6.2646 1.63026 5.25794 2.25853 4.40997 3.06792C3.52587 3.90882 2.82292 4.91852 2.34357 6.03606C1.86423 7.1536 1.61842 8.3558 1.62099 9.57008C1.62146 11.0987 1.99965 12.604 2.72252 13.9544C2.94967 14.3928 3.04398 14.887 2.99408 15.3773C2.94417 15.8676 2.75219 16.3331 2.44128 16.7178C1.01151 18.5265 0.238692 20.7599 0.247597 23.0574C0.247597 28.2777 3.99748 32.7131 8.78796 33.159C8.9614 33.159 9.16764 33.1868 9.38795 33.1915V41.3331C9.38795 41.5179 9.46202 41.6951 9.59388 41.8257C9.72574 41.9564 9.90458 42.0298 10.0911 42.0298C10.2775 42.0298 10.4564 41.9564 10.5882 41.8257C10.7201 41.6951 10.7942 41.5179 10.7942 41.3331V33.2054C11.2629 33.2054 11.6801 33.1775 11.9941 33.1543C13.2065 33.0317 14.3804 32.6629 15.4426 32.0708C16.5047 31.4786 17.4323 30.676 18.1674 29.7128C18.8513 30.6121 19.715 31.3621 20.7046 31.9159C21.6942 32.4696 22.7883 32.8153 23.9188 32.9314C24.1719 32.9314 24.5047 32.9685 24.8562 32.9732V41.3331C24.8562 41.5179 24.9303 41.6951 25.0622 41.8257C25.194 41.9564 25.3729 42.0298 25.5593 42.0298C25.7458 42.0298 25.9246 41.9564 26.0565 41.8257C26.1884 41.6951 26.2624 41.5179 26.2624 41.3331V32.9732L26.7968 32.9407C31.0951 32.5738 34.4653 28.6353 34.4653 23.9677C34.4715 21.5592 33.5122 19.2467 31.7982 17.5389C30.0842 15.831 27.7558 14.8674 25.325 14.86ZM11.8722 31.7564C11.5957 31.7564 11.2066 31.7935 10.7942 31.8028V9.75121C10.7942 9.56644 10.7201 9.38925 10.5882 9.2586C10.4564 9.12795 10.2775 9.05455 10.0911 9.05455C9.90458 9.05455 9.72574 9.12795 9.59388 9.2586C9.46202 9.38925 9.38795 9.56644 9.38795 9.75121V25.2542L5.66618 21.5666C5.5329 21.4435 5.35661 21.3765 5.17446 21.3797C4.99231 21.3829 4.81851 21.456 4.68969 21.5836C4.56087 21.7113 4.48708 21.8835 4.48387 22.0639C4.48065 22.2444 4.54827 22.4191 4.67246 22.5512L9.35982 27.1956H9.38795V31.8121L8.91921 31.7842C4.8459 31.4034 1.6538 27.5764 1.6538 23.0713C1.63721 21.0845 2.29783 19.1502 3.52875 17.5817C4.00615 16.9848 4.29911 16.2638 4.3723 15.5056C4.44548 14.7475 4.29578 13.9846 3.94123 13.3088C3.32859 12.1642 3.00681 10.8889 3.00376 9.5933C3.00215 8.57124 3.20891 7.55939 3.61164 6.61845C4.01437 5.67751 4.60478 4.82687 5.34744 4.11756C6.05807 3.4279 6.90514 2.89153 7.83529 2.54223C8.76544 2.19292 9.75852 2.03825 10.752 2.08796C12.2836 2.16608 13.7522 2.71667 14.9524 3.66269C16.1526 4.60872 17.0243 5.90284 17.4455 7.36399C18.0208 9.36519 17.7906 11.5095 16.8033 13.346C16.4491 14.0205 16.2987 14.7819 16.3702 15.5389C16.4417 16.296 16.732 17.0165 17.2065 17.6142C17.4683 17.9374 17.7108 18.2755 17.933 18.6266C16.7973 20.1732 16.1853 22.0365 16.1846 23.9491C16.1873 25.5289 16.5903 27.0827 17.3565 28.4681C16.7412 29.3808 15.9311 30.1484 14.9835 30.7166C14.0358 31.2848 12.9737 31.6398 11.8722 31.7564ZM26.6749 31.5288L26.2577 31.552V28.8443L26.314 28.7932L30.0639 24.6133C30.1882 24.4753 30.2521 24.2941 30.2416 24.1094C30.231 23.9248 30.1469 23.7518 30.0076 23.6287C29.8684 23.5055 29.6855 23.4422 29.4991 23.4526C29.3128 23.4631 29.1382 23.5464 29.0139 23.6844L26.2624 26.759V20.8978C26.2624 20.713 26.1884 20.5358 26.0565 20.4051C25.9246 20.2745 25.7458 20.2011 25.5593 20.2011C25.3729 20.2011 25.194 20.2745 25.0622 20.4051C24.9303 20.5358 24.8562 20.713 24.8562 20.8978V31.5799C24.5422 31.5799 24.2469 31.5799 24.0359 31.5474C20.422 31.2176 17.5908 27.8829 17.5908 23.9538C17.5908 22.9474 17.7909 21.9509 18.1796 21.0212C18.5682 20.0914 19.1379 19.2466 19.8561 18.535C20.5743 17.8234 21.4269 17.259 22.3652 16.8738C23.3036 16.4887 24.3093 16.2905 25.325 16.2905C26.3406 16.2905 27.3463 16.4887 28.2847 16.8738C29.223 17.259 30.0756 17.8234 30.7938 18.535C31.512 19.2466 32.0817 20.0914 32.4704 21.0212C32.8591 21.9509 33.0591 22.9474 33.0591 23.9538C33.0591 27.8969 30.2561 31.2269 26.6796 31.5334L26.6749 31.5288Z" fill="#E78C14"/>
</svg>
