<svg width="222" height="215" viewBox="0 0 222 215" fill="none" xmlns="http://www.w3.org/2000/svg">
<path d="M132.2 112.2C119.9 115.6 102.3 106.7 93.6 103.7C82.6 99.9 58.7 112.3 54.7 120.2C49.3 130.9 0 167.8 0 167.8C0 167.8 9 182.9 21.2 195.1C34.2 208 45.6 214.7 45.6 214.7C45.6 214.7 68.7 178 78.3 175.3C87.2 172.8 130.6 180.7 164.4 160.1C164.4 160 144.5 108.8 132.2 112.2Z" fill="#F9BB8D"/>
<path d="M130.6 113.2C130.6 113.2 148.3 105.1 151.4 102.4C154.5 99.6999 164.1 81.9999 168.3 73.8999C172.5 65.7999 185.6 68.0999 182.9 80.7999C180.2 93.4999 173.4 107.7 167.5 115C163.4 120.1 139 129.7 139 129.7L130.6 113.2Z" fill="#F9BB8D"/>
<path d="M159.8 102.8C166.1 95.4 164.3 85.2 170.1 77.8C172.6 74.7 175.9 71.9 179.4 70.2C175.8 68.2 170.7 69.5 168.3 74C164.1 82.1 154.4 99.8 151.4 102.5C148.3 105.2 130.6 113.3 130.6 113.3L131.5 115C142 114.2 152.8 111 159.8 102.8Z" fill="#E4DAD4"/>
<path d="M131.5 125C131.5 125 166 103.2 169.6 100.1C173.2 97 184.4 76.3 189.4 66.8C194.3 57.4 209.6 60.1 206.5 74.9C203.4 89.7 195.3 106.3 188.5 114.8C178.8 126.9 143.1 144.6 143.1 144.6L131.5 125Z" fill="#F9BB8D"/>
<path d="M170.7 106.5C182.8 97.8999 188.7 88.9999 192.5 74.9999C193.9 69.5999 195.9 65.0999 198.9 61.3999C195.3 61.0999 191.4 62.8999 189.3 66.7999C184.4 76.1999 173.1 96.8999 169.5 100.1C166.4 102.8 140.5 119.3 133.3 123.8C146.8 123.3 159.8 114.2 170.7 106.5Z" fill="#E4DAD4"/>
<path d="M137.7 133.6C137.7 133.6 172.2 111.8 175.8 108.7C179.4 105.6 190.6 84.9 195.6 75.4C200.5 66 215.8 68.6999 212.7 83.4999C209.6 98.2999 201.5 114.9 194.7 123.4C185 135.5 149.3 153.2 149.3 153.2L137.7 133.6Z" fill="#F9BB8D"/>
<path d="M176.9 115.1C189 106.6 194.9 97.6 198.7 83.6C200.1 78.2 202.1 73.7 205.1 70C201.5 69.7 197.6 71.5 195.5 75.4C190.6 84.8 179.3 105.5 175.7 108.7C172.6 111.4 146.7 127.9 139.5 132.4C153 131.9 166 122.8 176.9 115.1Z" fill="#E4DAD4"/>
<path d="M145.8 144C145.8 144 180.3 122.2 183.9 119.1C187.5 116 198.7 95.3 203.7 85.8C208.6 76.4 223.9 79.1 220.8 93.9C217.7 108.7 209.6 125.3 202.8 133.8C193.1 145.9 157.4 163.6 157.4 163.6L145.8 144Z" fill="#F9BB8D"/>
<path d="M185 125.5C197.1 117 203 108 206.8 93.9999C208.2 88.5999 210.2 84.0999 213.2 80.3999C209.6 80.0999 205.7 81.8999 203.6 85.7999C198.7 95.1999 187.4 115.9 183.8 119.1C180.7 121.8 154.8 138.3 147.6 142.8C161.1 142.3 174.1 133.2 185 125.5Z" fill="#E4DAD4"/>
<path d="M134.8 39.3C154 63.1 151.4 102.8 127.3 113.2C113.4 138 68.1 123 53.5 104.9C24.8 69.3 24.8 0 24.8 0C24.8 0 106.1 3.8 134.8 39.3Z" fill="#95A63A"/>
<path d="M129.5 33.7C106.4 12 62.8 4.10002 39.8 1.40002C55.8 11.8 77.1 10.1 94.2 19.5C102.6 24.1 118.9 35.5 129.5 33.7Z" fill="#A9B136"/>
<path d="M136.3 68.3C135.1 77.3 132.8 87.3 125.8 93.7C112.2 106 95 104.4 79.5 96.6C65.1 89.3 51 76.1 44 61.4C38.3 49.3 36.1 36 31 23.7C29.3 19.6 27.5 15 25.2 10.6C26.4 31.3 31.6 77.9 53.5 105C68.1 123.1 113.4 138.1 127.3 113.3C150.3 103.4 153.7 66.5 137.1 42.5C135.8 50.9 137.2 61.2 136.3 68.3Z" fill="#8A9335"/>
<path d="M127.3 113.3C127.3 113.3 126.7 101.7 114.9 84.8C89.9 49 42.4 13.6 42.4 13.6C42.4 13.6 94.5 42.2 122.2 79.7C133.1 94.6 127.3 113.3 127.3 113.3Z" fill="#708A34"/>
<path d="M126 56.6C110.4 76 112.5 108.4 132.1 116.8C143.4 137 180.3 124.8 192.2 110C215.6 81 215.5 24.5 215.5 24.5C215.5 24.5 149.4 27.6 126 56.6Z" fill="#95A63A"/>
<path d="M130.3 52C149.1 34.3 184.7 27.9 203.4 25.7C190.4 34.2 173 32.8 159.1 40.5C152.2 44.2 138.9 53.4 130.3 52Z" fill="#A9B136"/>
<path d="M124.8 80.2C125.8 87.6 127.6 95.7 133.4 100.9C144.4 110.9 158.5 109.6 171.1 103.2C182.8 97.2 194.3 86.5 200 74.5C204.7 64.7 206.4 53.8 210.6 43.8C212 40.5 213.5 36.7 215.3 33.1C214.3 50 210.1 87.9 192.3 110C180.4 124.7 143.5 137 132.2 116.8C113.4 108.7 110.7 78.7 124.2 59.1C125.1 66 124 74.4 124.8 80.2Z" fill="#8A9335"/>
<path d="M132.1 116.8C132.1 116.8 132.6 107.4 142.2 93.6C162.6 64.4 201.3 35.6 201.3 35.6C201.3 35.6 158.8 58.9 136.3 89.5C127.4 101.6 132.1 116.8 132.1 116.8Z" fill="#708A34"/>
<path d="M52.9 147.5C52.9 147.5 59.2 128.3 85.1 123.7C111 119.1 117.3 125.2 126.7 123.7C136 122.2 151.1 114.7 162.9 110.5C176.4 105.8 187.5 114.9 187.4 122.8C187.4 126 169.7 126.7 164.3 132.6C158.9 138.5 144.4 145.2 141.7 153.7C139 162.2 122.9 172.5 117.9 170.9" fill="#F9BB8D"/>
<path d="M103.2 127C111.8 127.7 120.8 130.7 129.3 128.7C138.9 126.4 148.1 122.2 157 117.9C162.2 115.4 169.1 111.9 174.9 114.2C177.7 115.3 183.9 118 187.4 121.5C186.9 113.8 176.1 105.1 162.9 109.7C151.1 113.8 136 121.3 126.7 122.9C119.4 124.1 113.9 120.6 99.2 121.2C95.2 121.4 84 126.1 80.3 132.1C87.5 126 95.6 126.4 103.2 127Z" fill="#E4DAD4"/>
</svg>
