<svg width="189" height="147" viewBox="0 0 189 147" fill="none" xmlns="http://www.w3.org/2000/svg">
<path d="M112.718 145.693C123.986 146.762 135.594 144.333 145.843 139.573C150.943 137.193 155.945 133.55 157.548 128.159C158.325 125.633 158.277 122.913 158.714 120.339C161.24 105.137 178.336 97.1711 186.011 83.8143C187.953 80.4629 189.265 76.5287 188.536 72.7402C187.613 68.126 183.728 64.6289 179.599 62.3461C175.471 60.0633 170.905 58.6062 166.922 56.032C161.482 52.5349 156.625 47.2407 155.605 40.878C153.76 28.8811 153.954 4.49876 125.2 0.3217C99.1666 -3.41822 72.7929 26.5983 61.5245 30.8725C36.5108 40.3437 7.36851 37.5266 1.20007 61.9576C-6.13407 91.0998 22.2796 105.477 28.7881 109.848C35.2965 114.171 37.4822 123.399 35.2965 130.928C29.4681 150.89 55.3561 149.919 80.7584 140.642C106.209 131.316 98.0009 144.333 112.718 145.693Z" fill="#F5F8FE"/>
</svg>
